<?xml version="1.0" encoding="UTF-8"?>
<svg id="Layer_2" data-name="Layer 2" xmlns="http://www.w3.org/2000/svg" xmlns:xlink="http://www.w3.org/1999/xlink" viewBox="0 0 406.06 416.15">
  <defs>
    <style>
      .cls-1 {
        fill: #387648;
      }

      .cls-2 {
        fill: url(#linear-gradient);
      }
    </style>
    <linearGradient id="linear-gradient" x1="188.41" y1="416.15" x2="188.41" y2="403.06" gradientUnits="userSpaceOnUse">
      <stop offset="0" stop-color="#fff"/>
      <stop offset="1" stop-color="#69b97f"/>
    </linearGradient>
  </defs>
  <path class="cls-1" d="m361.95,125.09c-1.49-1.45-3.24-2.72-5.27-3.33-2.01-.62-4.2-.62-6.21-.01-2.01.6-3.82,1.81-5.13,3.42-.65.8-1.22,1.71-1.5,2.72-.29,1-.36,2.07-.18,3.1.34,2.05,1.68,3.92,3.53,4.83,1.89.93,4.34.19,5.44-1.55-1.14,1.72-3.58,2.36-5.38,1.43-1.79-.93-3.04-2.78-3.33-4.76-.32-2,.38-4.03,1.73-5.51,1.3-1.52,3.05-2.63,4.97-3.16,1.91-.53,3.98-.49,5.85.14,1.88.61,3.5,1.84,4.9,3.26,2.78,2.85,4.37,6.78,4.39,10.72.02,1.97-.35,3.94-1.06,5.76-.36.91-.8,1.79-1.32,2.61-.53.84-1.13,1.63-1.77,2.39-2.55,3.04-5.86,5.42-9.53,6.87-3.66,1.46-7.68,2-11.58,1.55-2.84-.32-5.6-1.16-8.14-2.45-4.97-3.7-10.7-6.38-16.74-7.84-12.53-2.84-25.76-2.15-37.95,1.91-12.19,4.03-23.27,11.42-31.71,21.15-2.96,3.39-5.58,7.07-7.84,10.97.11-2.57.11-5.14.02-7.71.16-.35.25-.74.25-1.15-.11-8.62.47-17.25,1.95-25.71,1.48-8.46,3.88-16.77,7.41-24.58,3.52-7.8,8.21-15.09,14.1-21.3,5.88-6.2,12.96-11.29,20.86-14.6,7.88-3.33,16.54-4.86,25.12-4.32,2.15.13,4.29.39,6.4.77,2.11.4,4.23.85,6.21,1.56,3.97,1.42,7.65,3.86,10,7.34,2.4,3.45,3.14,7.88,2.41,12.07-.31,2.12-1.03,4.1-2.33,5.77-1.27,1.66-3.02,2.96-5,3.7-1.97.74-4.16.92-6.24.48-2.05-.39-3.9-1.74-4.92-3.59-1.02-1.83-1.24-4.17-.41-6.11.87-1.93,3.18-3.08,5.29-2.58.07.02.13-.02.15-.09.02-.07-.02-.14-.09-.16h0c-2.19-.59-4.71.56-5.71,2.64-.95,2.08-.78,4.56.27,6.57,1.04,2.02,3.02,3.56,5.28,4.05,2.19.52,4.56.4,6.7-.36,2.15-.75,4.09-2.11,5.53-3.89,1.46-1.76,2.33-4.02,2.7-6.22.42-2.21.51-4.51.13-6.77-.37-2.25-1.21-4.44-2.45-6.37-2.5-3.89-6.43-6.62-10.64-8.25-2.13-.82-4.3-1.33-6.48-1.8-2.19-.45-4.4-.77-6.63-.97-8.91-.78-18.01.59-26.37,3.88-.38.15-.74.32-1.11.47.54-.74,1.06-1.5,1.51-2.29,2.23-3.82,3.44-8.22,3.5-12.62.07-4.4-1.02-8.81-3.13-12.65-2.04-3.93-5.73-6.99-9.97-8.23-4.22-1.29-8.94-.8-12.77,1.34-1.95,1.03-3.58,2.69-4.57,4.67-1,1.97-1.36,4.25-1.03,6.42.16,1.08.5,2.14.99,3.12.47.99,1.15,1.9,2.02,2.59,1.72,1.39,4.12,1.86,6.22,1.23,1.04-.31,2.06-.83,2.76-1.71.7-.85,1.05-1.97.99-3.06-.08-1.08-.5-2.19-1.41-2.85-.89-.65-2.16-.71-3.09-.14-.02.01-.03.04-.02.07.01.02.04.03.07.02.91-.52,2.12-.44,2.94.19.83.62,1.22,1.71,1.27,2.73.04,1.04-.31,2.08-.98,2.86-.66.8-1.63,1.27-2.63,1.55-2,.55-4.24.06-5.82-1.27-.79-.65-1.4-1.51-1.83-2.45-.44-.94-.74-1.94-.87-2.97-.27-2.05.11-4.17,1.08-5.98.96-1.82,2.48-3.31,4.32-4.23,3.67-1.95,8.1-2.31,12.01-1.02,3.93,1.25,7.25,4.12,9.07,7.8,1.92,3.67,2.85,7.83,2.71,11.95-.15,4.11-1.36,8.18-3.5,11.67-1.25,2.05-2.81,3.89-4.6,5.47-6.07,3.15-11.62,7.29-16.45,12.14-6.35,6.37-11.47,13.91-15.36,21.99-3.9,8.08-6.62,16.69-8.37,25.45-.41,2.03-.76,4.06-1.07,6.1-1.9-6.02-4.53-11.8-7.98-17.08-6.27-9.7-14.94-17.59-24.53-23.64-2.4-1.52-4.88-2.93-7.35-4.25-.4-.21-.8-.42-1.2-.62,0,0-.01-.01-.02-.02-5.84-3.12-10.81-7.75-14.35-13.35-3.54-5.58-5.61-12.11-5.96-18.74-.35-6.63,1.05-13.36,4.04-19.33,2.84-5.99,8.12-10.72,14.43-12.85,6.27-2.18,13.43-1.72,19.38,1.32,2.98,1.45,5.49,3.81,7.08,6.72,1.61,2.9,2.29,6.31,1.9,9.62-.18,1.65-.63,3.28-1.32,4.8-.66,1.53-1.62,2.93-2.88,4-2.5,2.18-6.1,3.04-9.34,2.2-1.6-.43-3.19-1.16-4.28-2.42-1.1-1.24-1.7-2.92-1.66-4.59.02-.83.19-1.67.51-2.44.32-.78.79-1.48,1.46-1.99,1.31-1.04,3.25-1.2,4.73-.38.03.02.07,0,.08-.02.02-.03,0-.07-.02-.09-1.51-.87-3.52-.74-4.92.33-.71.51-1.23,1.26-1.56,2.06-.35.8-.54,1.66-.58,2.53-.07,1.74.53,3.5,1.67,4.84,1.14,1.36,2.79,2.15,4.44,2.62,3.37.93,7.16.1,9.85-2.17,1.36-1.12,2.4-2.59,3.12-4.17.74-1.57,1.24-3.27,1.46-5,.46-3.46-.2-7.07-1.85-10.16-1.63-3.11-4.28-5.68-7.41-7.26-6.16-3.27-13.68-3.89-20.34-1.69-3.33,1.08-6.46,2.83-9.12,5.13-2.66,2.29-4.86,5.16-6.43,8.28-3.22,6.18-4.81,13.22-4.55,20.22.26,6.99,2.32,13.93,5.99,19.92,1.52,2.5,3.33,4.82,5.36,6.94-3.72-1.45-7.55-2.63-11.45-3.43-2.78-.58-5.58-.99-8.39-1.3-2.05-.22-4.13-.4-6.23-.45-2.83-.44-5.58-1.38-8.09-2.79-3.45-1.94-6.43-4.74-8.56-8.1-2.15-3.35-3.45-7.24-3.75-11.22-.15-2-.09-4,.42-5.91.49-1.92,1.35-3.74,2.52-5.34,2.34-3.21,5.95-5.49,9.89-6.17,1.96-.34,4.02-.39,5.91.22,1.89.59,3.6,1.76,4.85,3.32,1.25,1.55,2.03,3.49,2.19,5.48.23,2-.4,4.06-1.82,5.49-1.38,1.44-3.48,2.2-5.47,1.92-2-.31-3.6-2.23-3.51-4.28,0-.02-.02-.04-.04-.04-.02,0-.04.02-.04.04-.12,2.08,1.48,4.1,3.56,4.45,2.06.32,4.22-.42,5.69-1.9.74-.73,1.31-1.64,1.65-2.62.35-.99.42-2.06.35-3.09-.13-2.07-.91-4.1-2.19-5.75-1.28-1.65-3.05-2.91-5.04-3.57-2-.67-4.15-.65-6.19-.34-4.12.65-7.95,2.97-10.47,6.31-1.27,1.67-2.21,3.58-2.76,5.61-.28,1.01-.46,2.05-.54,3.11-.08,1.04-.07,2.08-.01,3.12.24,4.16,1.54,8.26,3.74,11.81,2.19,3.56,5.28,6.57,8.9,8.69,1.15.68,2.37,1.25,3.61,1.73-1.88.2-3.76.55-5.56,1.18-1.37.47-2.68,1.09-3.93,1.76-1.29.68-2.49,1.53-3.54,2.55-2.11,2.01-3.61,4.81-3.66,7.8-.03,1.48.28,2.95.88,4.3.64,1.35,1.72,2.48,3.03,3.19,1.3.71,2.83.99,4.29.8.73-.1,1.44-.29,2.11-.64.66-.36,1.23-.88,1.64-1.5.84-1.24,1.01-2.89.42-4.26-.58-1.43-2.35-2.18-3.74-1.63h-.02c-.09.04-.13.14-.1.23.03.09.13.14.23.11,1.27-.45,2.75.26,3.21,1.47.48,1.23.29,2.69-.47,3.75-.38.53-.88.97-1.46,1.26-.58.29-1.25.45-1.9.52-1.32.14-2.67-.15-3.81-.81-1.14-.66-2.06-1.67-2.58-2.87-.51-1.22-.75-2.56-.69-3.87.12-2.65,1.52-5.13,3.49-6.91.98-.9,2.11-1.65,3.31-2.25,1.23-.62,2.48-1.16,3.77-1.56,2.58-.81,5.3-1.08,8.04-1.07,2.75.01,5.47.29,8.24.67,2.74.37,5.47.85,8.15,1.49,10.73,2.49,20.59,7.97,29.85,13.93,9.14,6.11,17.18,13.89,22.83,23.18,5.69,9.26,8.84,19.92,9.66,30.74.07.85.1,1.71.14,2.57-.02.71-.04,1.43-.05,2.14v.07c0,.28.06.54.14.79.12,9.01-1.11,18.06-3.2,26.89-2.54,10.67-6.32,21.05-10.81,31.1-3.18,7.12-6.75,14.04-10.57,20.87-4.91,6.77-10.3,18.51-20.57,18.51-5.02,0-12.86-9.19-17.37-18.6-.35-.78-.71-1.56-1.05-2.34-.12-.28-.23-.56-.34-.84-.05-.13-.12-.25-.2-.37-3.37-7.66-6.61-15.45-10.19-23.12-3.74-8.02-7.81-15.97-12.7-23.46-1.63-4.01-2.58-8.28-2.75-12.62-.25-6.16,1.04-12.4,3.75-17.98,2.69-5.59,6.79-10.5,11.84-14.15,1.26-.91,2.58-1.76,3.94-2.5,1.35-.72,2.78-1.33,4.24-1.78,2.94-.92,6.06-1.26,9.14-1.01,6.17.48,12.15,3.41,16.28,8.09,2.05,2.34,3.8,5.02,4.54,8.02.76,2.99.61,6.22-.44,9.15-1.04,2.93-2.97,5.55-5.5,7.4-1.27.93-2.64,1.69-4.16,2.04-1.51.36-3.1.38-4.62.03-3.05-.66-5.77-2.83-7.03-5.7-.58-1.45-.63-3.11-.11-4.6.5-1.49,1.56-2.79,2.93-3.59.04-.02.05-.07.03-.1-.02-.04-.07-.05-.1-.03-1.41.79-2.54,2.1-3.09,3.64-.57,1.53-.56,3.27.02,4.8,1.25,3.03,4.03,5.34,7.23,6.1,1.59.4,3.28.42,4.89.06.81-.18,1.59-.45,2.34-.81.73-.35,1.44-.8,2.1-1.26,2.68-1.88,4.78-4.6,5.94-7.68,1.17-3.08,1.42-6.51.66-9.74-.36-1.6-1.01-3.2-1.81-4.61-.81-1.42-1.76-2.77-2.83-4.02-4.26-5.02-10.53-8.28-17.13-8.92-3.29-.33-6.66-.04-9.85.89-1.6.46-3.14,1.08-4.64,1.84-1.47.76-2.86,1.62-4.22,2.56-5.41,3.74-9.87,8.86-12.86,14.76-3,5.89-4.53,12.53-4.4,19.17.03,1.75.19,3.5.45,5.23-3.24-4.17-6.82-8.12-10.85-11.6-4.38-3.79-9.29-7.02-14.61-9.39-3.66-1.65-7.49-2.87-11.4-3.69-1.4-.81-2.71-1.78-3.86-2.91-2.38-2.33-3.98-5.43-4.37-8.75-.4-3.31.35-6.76,2.09-9.63,1.72-2.87,4.48-5.17,7.75-5.99,3.25-.85,6.83-.13,9.73,1.58,1.44.87,2.67,2.11,3.41,3.61.75,1.5.93,3.25.63,4.92-.32,1.65-.9,3.36-2.22,4.44-1.28,1.09-3.08,1.56-4.74,1.19-.82-.17-1.63-.54-2.19-1.18-.57-.62-.91-1.45-.93-2.3,0-.83.22-1.74.87-2.3.63-.57,1.59-.73,2.39-.41.02,0,.04,0,.05-.02,0-.02,0-.04-.03-.05-.81-.35-1.82-.2-2.5.38-.7.58-.95,1.53-.97,2.4,0,.89.35,1.77.94,2.45.59.69,1.43,1.1,2.29,1.3,1.73.43,3.65-.03,5.04-1.17.7-.57,1.26-1.29,1.64-2.11.36-.8.64-1.66.81-2.52.35-1.74.19-3.62-.58-5.25-.76-1.64-2.06-2.98-3.57-3.93-3.02-1.85-6.76-2.69-10.29-1.85-3.53.82-6.55,3.24-8.44,6.27-1.91,3.04-2.8,6.72-2.43,10.32.34,3.61,2.04,7.06,4.58,9.63.43.45.9.86,1.37,1.26-.6-.09-1.2-.17-1.79-.24-5.74-.69-11.54-.55-17.22.15-.1.01-.19.03-.29.04-5.1.2-10.21-.69-14.94-2.65-5.65-2.32-10.69-6.14-14.48-10.96-3.8-4.82-6.33-10.64-7.26-16.73-1.05-6.03.41-12.41,4.03-17.38,3.57-4.99,9.21-8.46,15.33-9.34,3.02-.5,6.17-.05,8.92,1.29,2.76,1.33,5.09,3.54,6.56,6.24.75,1.35,1.27,2.81,1.56,4.33.32,1.5.34,3.07-.04,4.55-.73,2.98-2.98,5.54-5.87,6.64-1.44.53-3.02.83-4.52.45-1.49-.35-2.84-1.29-3.7-2.58-.83-1.27-1.32-2.91-.87-4.4.44-1.48,1.81-2.64,3.36-2.81.03,0,.06-.04.06-.07,0-.03-.04-.06-.07-.06-1.61.15-3.06,1.32-3.55,2.88-.26.77-.26,1.61-.09,2.4.16.79.47,1.55.91,2.22.88,1.36,2.27,2.37,3.85,2.78,1.59.43,3.26.14,4.77-.39,3.05-1.09,5.48-3.75,6.31-6.91.44-1.57.44-3.25.13-4.83-.28-1.59-.8-3.14-1.56-4.57-1.5-2.87-3.92-5.25-6.83-6.72-2.89-1.49-6.28-2.02-9.5-1.55-6.42.81-12.45,4.35-16.33,9.58-1.95,2.6-3.38,5.6-4.17,8.76-.8,3.16-.93,6.51-.45,9.71.86,6.41,3.41,12.59,7.35,17.76,3.93,5.17,9.2,9.32,15.19,11.9,2.09.91,4.28,1.62,6.5,2.13-2.37.55-4.72,1.16-7.05,1.86-1.37.41-2.73.85-4.06,1.29-1.38.46-2.72.98-4.05,1.56-2.65,1.16-5.19,2.59-7.54,4.31-4.69,3.42-8.52,8.16-10.5,13.67-2.01,5.49-2.13,11.57-.58,17.14.38,1.39.87,2.77,1.44,4.08.57,1.35,1.33,2.63,2.23,3.79,1.81,2.31,4.23,4.14,6.95,5.22,2.71,1.09,5.71,1.46,8.59,1.03,1.43-.2,2.87-.63,4.17-1.18,1.37-.58,2.59-1.43,3.61-2.5,2.03-2.13,3.12-5.1,2.95-8.02-.08-1.45-.46-2.91-1.13-4.19-.69-1.31-1.81-2.38-3.14-3.01-1.32-.64-2.85-.85-4.28-.57-.72.14-1.41.37-2.05.75-.63.38-1.17.93-1.54,1.56-.76,1.27-.84,2.91-.18,4.23.64,1.38,2.44,2.01,3.78,1.38h.02c.06-.04.09-.11.06-.17-.03-.06-.1-.09-.17-.06-1.26.56-2.84-.06-3.39-1.29-.58-1.22-.48-2.73.24-3.87.35-.57.84-1.05,1.42-1.39.58-.33,1.25-.54,1.91-.65,1.34-.23,2.74,0,3.94.6,1.21.6,2.2,1.6,2.81,2.79.6,1.23.92,2.56.97,3.92.11,2.72-.96,5.44-2.86,7.35-.94.96-2.09,1.72-3.33,2.21-1.3.52-2.59.88-3.95,1.04-2.7.36-5.48-.05-7.97-1.11-2.5-1.05-4.69-2.78-6.31-4.93-.8-1.08-1.47-2.26-1.97-3.51-.53-1.28-.95-2.58-1.29-3.91-1.36-5.31-1.12-11.01.84-16.08,1.94-5.09,5.57-9.42,10.02-12.54,2.23-1.57,4.65-2.87,7.18-3.92,1.26-.53,2.56-.99,3.86-1.4,1.35-.42,2.68-.82,4.02-1.19,5.37-1.5,10.83-2.62,16.33-3.2,5.5-.57,11.05-.59,16.49.17,5.43.75,10.73,2.27,15.66,4.6,9.91,4.63,18.02,12.46,24.44,21.38,2.86,3.96,5.42,8.14,7.8,12.44-2.17-1.79-4.52-3.36-7.01-4.67-8.2-4.33-17.77-5.69-26.81-4.27-4.53.71-8.96,2.09-13.04,4.22-2.04,1.07-3.99,2.33-5.77,3.81-1.8,1.48-3.36,3.23-4.7,5.12-5.32,7.53-7.29,17.39-4.76,26.29,1.27,4.43,3.74,8.53,7.2,11.6,3.46,3.08,7.95,4.94,12.54,5.25,4.59.33,9.27-.9,13.09-3.44,1.91-1.29,3.61-2.8,4.99-4.69,1.36-1.86,2.32-4,2.81-6.24,1.02-4.48.1-9.34-2.49-13.1-1.29-1.87-2.93-3.54-4.94-4.65-1.99-1.13-4.27-1.7-6.55-1.71-4.54-.01-9.09,2.41-11.29,6.42-1.08,2-1.47,4.34-1.14,6.57.33,2.23,1.39,4.34,2.99,5.93.03.03.08.03.11,0,.03-.03.03-.08,0-.11-1.55-1.58-2.56-3.67-2.85-5.86-.29-2.18.13-4.45,1.2-6.37,2.18-3.83,6.63-6.12,10.98-6.04,2.18.04,4.35.62,6.23,1.72,1.89,1.08,3.44,2.69,4.65,4.5,2.43,3.63,3.22,8.27,2.19,12.48-.5,2.11-1.44,4.11-2.73,5.83-1.28,1.7-2.97,3.19-4.78,4.35-3.65,2.35-8.07,3.43-12.37,3.06-4.3-.35-8.46-2.16-11.62-5.06-3.18-2.91-5.44-6.77-6.56-10.93-2.26-8.36-.25-17.66,4.81-24.59,2.49-3.51,5.95-6.17,9.81-8.11,3.86-1.94,8.07-3.19,12.36-3.8,8.57-1.22,17.53.21,25.08,4.34,3.77,2.06,7.18,4.76,10.07,7.93,1.28,1.4,2.45,2.9,3.53,4.46,1.01,2.14,2,4.29,2.95,6.45,3.07,6.94,5.9,14.01,8.82,21.09,21.03,57.13,16.06,96.9,13.31,151.25h24.08c-6.97-68.57-2.57-104.68,14.01-143.27,5.06-9.6,9.69-19.51,13.52-29.74,1.81-3.74,4.29-7.14,7.32-10.01,4.11-3.89,9.22-6.76,14.71-8.26,5.49-1.51,11.38-1.64,16.96-.35,2.81.65,5.51,1.58,7.91,3.08,2.41,1.48,4.53,3.43,6.22,5.72,3.4,4.56,4.98,10.48,4.24,16.17-.38,2.84-1.18,5.67-2.82,8-1.61,2.34-3.95,4.18-6.61,5.22-2.66,1.05-5.64,1.3-8.45.66-1.41-.32-2.77-.81-3.93-1.65-1.16-.83-2.14-1.92-2.82-3.19-1.38-2.51-1.53-5.71-.3-8.32.65-1.28,1.78-2.31,3.12-2.86,1.34-.55,2.88-.6,4.26-.14.04.01.08,0,.09-.05.01-.04,0-.08-.05-.1-1.4-.51-3-.5-4.4.05-1.41.53-2.62,1.59-3.34,2.93-1.36,2.71-1.28,6.04.12,8.74.69,1.35,1.7,2.54,2.92,3.45,1.23.93,2.69,1.49,4.14,1.85,2.94.73,6.1.55,8.95-.51,2.86-1.05,5.4-2.96,7.2-5.44.9-1.22,1.62-2.64,2.12-4.06.5-1.43.87-2.91,1.09-4.41.92-6.01-.61-12.36-4.16-17.35-1.76-2.5-4.01-4.67-6.59-6.33-1.29-.83-2.66-1.54-4.09-2.12-1.43-.57-2.87-1.01-4.34-1.39-5.89-1.5-12.16-1.51-18.09-.02-5.93,1.48-11.49,4.44-16.04,8.56-.62.56-1.23,1.15-1.81,1.76,1.52-4.89,2.84-9.85,3.9-14.89.55-2.66,1.03-5.33,1.43-8.03,2.72-7.49,6.75-14.5,11.92-20.59,7.86-9.32,18.29-16.5,29.86-20.5,11.54-4.03,24.27-4.87,36.24-2.33,5.93,1.34,11.57,3.93,16.45,7.58,4.88,3.64,9.01,8.32,12.02,13.64,3.02,5.31,4.92,11.27,5.51,17.37.3,3.05.28,6.13-.05,9.18-.32,3.07-.99,6.03-2.19,8.84-2.35,5.61-6.61,10.4-11.9,13.46-5.28,3.08-11.58,4.39-17.68,3.62-3.05-.32-5.98-1.34-8.5-3.06-2.52-1.7-4.6-4.06-6-6.77-1.4-2.71-2.11-5.79-2.03-8.85.04-1.52.25-3.08.74-4.5.49-1.43,1.27-2.77,2.28-3.91,2.01-2.29,4.93-3.76,7.99-3.97,1.51-.09,3.1.03,4.49.61,1.4.58,2.61,1.6,3.44,2.88.83,1.28,1.26,2.81,1.21,4.34,0,1.53-.61,3.05-1.82,4-1.17.97-2.81,1.36-4.29.95-1.46-.4-2.47-2-2.19-3.52,0-.05-.03-.11-.08-.12-.06,0-.11.03-.12.08-.31,1.61.72,3.35,2.32,3.81,1.55.45,3.3.06,4.57-.95.64-.5,1.15-1.16,1.49-1.89.35-.74.48-1.56.52-2.35.07-1.61-.36-3.23-1.22-4.6-.86-1.37-2.13-2.47-3.62-3.12-1.51-.65-3.14-.79-4.73-.72-3.21.18-6.33,1.68-8.49,4.07-1.09,1.2-1.94,2.61-2.49,4.13-.56,1.54-.78,3.13-.85,4.73-.13,3.2.57,6.44,2.01,9.32,1.43,2.88,3.6,5.4,6.25,7.24,2.64,1.86,5.79,3,8.97,3.38,6.35.88,12.98-.39,18.58-3.55,5.61-3.14,10.19-8.14,12.77-14.07,1.32-2.95,2.08-6.16,2.45-9.32.4-3.18.46-6.4.19-9.59-.53-6.39-2.44-12.67-5.53-18.3-2.26-4.14-5.17-7.92-8.58-11.2,1.14.26,2.29.45,3.45.55,4.22.38,8.51-.3,12.39-1.94,3.88-1.64,7.34-4.25,9.96-7.52.65-.82,1.27-1.67,1.81-2.56.55-.92,1.01-1.88,1.37-2.87.73-1.99,1.07-4.11,1-6.22-.12-4.22-1.91-8.35-4.9-11.28Z"/>
  <rect class="cls-2" x="176.25" y="403.06" width="24.31" height="13.09"/>
  <g>
    <g>
      <path class="cls-1" d="m209.63,103.42c-8.94,0-16.21-7.27-16.21-16.21s7.27-16.21,16.21-16.21,16.21,7.27,16.21,16.21-7.27,16.21-16.21,16.21Zm0-30.82c-8.05,0-14.61,6.55-14.61,14.61s6.55,14.61,14.61,14.61,14.61-6.55,14.61-14.61-6.55-14.61-14.61-14.61Z"/>
      <path class="cls-1" d="m209.63,74.47c-7.03,0-12.73,5.7-12.73,12.73s5.7,12.74,12.73,12.74,12.73-5.7,12.73-12.74-5.7-12.73-12.73-12.73Zm1.31,19.15c-.42.14-.78.55-.78.99v.64c0,.44-.3.8-.68.8s-.68-.36-.68-.8v-.57c0-.44-.36-.8-.8-.86-.65-.09-1.28-.26-1.8-.5-.4-.18-.58-.71-.44-1.11.14-.4.56-.52.96-.33.69.32,1.52.54,2.4.54,1.53,0,2.56-.88,2.56-2.11s-.84-1.92-2.44-2.56c-2.2-.86-3.55-1.85-3.55-3.73,0-1.54.95-2.76,2.48-3.28.42-.14.78-.55.78-.99v-.57c0-.44.3-.8.67-.8s.67.36.67.8v.48c0,.44.36.81.8.87.5.07.92.19,1.28.33.41.16.6.67.45,1.06-.15.39-.58.52-.99.36-.49-.2-1.15-.38-2-.38-1.66,0-2.28.99-2.28,1.85,0,1.12.8,1.68,2.67,2.46,2.22.91,3.34,2.03,3.34,3.94,0,1.49-.91,2.9-2.63,3.47Z"/>
    </g>
    <g>
      <path class="cls-1" d="m71.77,156.02c-5.6,0-10.16-4.56-10.16-10.16s4.56-10.16,10.16-10.16,10.16,4.56,10.16,10.16-4.56,10.16-10.16,10.16Zm0-19.32c-5.05,0-9.16,4.11-9.16,9.16s4.11,9.16,9.16,9.16,9.16-4.11,9.16-9.16-4.11-9.16-9.16-9.16Z"/>
      <path class="cls-1" d="m71.77,137.87c-4.41,0-7.98,3.57-7.98,7.98s3.57,7.98,7.98,7.98,7.98-3.57,7.98-7.98-3.57-7.98-7.98-7.98Zm.82,12c-.26.09-.49.34-.49.62v.4c0,.28-.19.5-.43.5s-.43-.23-.43-.5v-.36c0-.28-.23-.5-.5-.54-.41-.06-.8-.17-1.13-.31-.25-.11-.37-.45-.28-.7.09-.25.35-.32.6-.21.43.2.95.34,1.51.34.96,0,1.61-.55,1.61-1.33s-.53-1.2-1.53-1.61c-1.38-.54-2.23-1.16-2.23-2.34,0-.97.59-1.73,1.55-2.06.26-.09.49-.34.49-.62v-.36c0-.28.19-.5.42-.5s.42.23.42.5v.3c0,.28.23.51.5.55.31.04.58.12.8.21.26.1.38.42.28.67-.09.25-.36.33-.62.22-.31-.12-.72-.24-1.25-.24-1.04,0-1.43.62-1.43,1.16,0,.7.5,1.05,1.67,1.54,1.39.57,2.09,1.27,2.09,2.47,0,.94-.57,1.82-1.65,2.18Z"/>
    </g>
    <g>
      <path class="cls-1" d="m320.66,252.82c-7.87,0-14.27-6.4-14.27-14.27s6.4-14.27,14.27-14.27,14.27,6.4,14.27,14.27-6.4,14.27-14.27,14.27Zm0-27.13c-7.09,0-12.86,5.77-12.86,12.86s5.77,12.86,12.86,12.86,12.86-5.77,12.86-12.86-5.77-12.86-12.86-12.86Z"/>
      <path class="cls-1" d="m320.66,227.34c-6.19,0-11.21,5.02-11.21,11.21s5.02,11.21,11.21,11.21,11.21-5.02,11.21-11.21-5.02-11.21-11.21-11.21Zm1.15,16.86c-.37.12-.68.48-.68.87v.56c0,.39-.27.71-.6.71s-.6-.32-.6-.71v-.5c0-.39-.32-.71-.7-.76-.57-.08-1.12-.23-1.58-.44-.36-.16-.51-.63-.39-.98.12-.35.49-.46.84-.29.61.28,1.34.47,2.12.47,1.35,0,2.26-.78,2.26-1.86s-.74-1.69-2.14-2.26c-1.93-.76-3.13-1.63-3.13-3.28,0-1.36.83-2.43,2.18-2.89.37-.12.69-.48.69-.88v-.5c0-.39.26-.71.59-.71s.59.32.59.71v.43c0,.39.32.71.7.77.44.06.81.17,1.13.29.36.14.53.59.4.93-.13.35-.51.46-.87.31-.43-.17-1.01-.33-1.76-.33-1.46,0-2.01.87-2.01,1.63,0,.98.7,1.48,2.35,2.16,1.96.8,2.94,1.78,2.94,3.47,0,1.31-.8,2.55-2.31,3.06Z"/>
    </g>
    <g>
      <path class="cls-1" d="m104.44,289.49c-8.94,0-16.21-7.27-16.21-16.21s7.27-16.21,16.21-16.21,16.21,7.27,16.21,16.21-7.27,16.21-16.21,16.21Zm0-30.82c-8.06,0-14.61,6.55-14.61,14.61s6.55,14.61,14.61,14.61,14.61-6.55,14.61-14.61-6.55-14.61-14.61-14.61Z"/>
      <path class="cls-1" d="m104.44,260.54c-7.03,0-12.73,5.7-12.73,12.74s5.7,12.73,12.73,12.73,12.73-5.7,12.73-12.73-5.7-12.74-12.73-12.74Zm3.81,19.46c-.65.29-1.5.52-2.51.52-1.75,0-3.3-.67-4.38-1.92-.68-.75-1.16-1.72-1.42-2.91-.09-.43-.43-.79-.8-.79s-.67-.24-.67-.53.27-.53.61-.53.61-.07.61-.16v-.16c0-.17,0-.33.01-.49.01-.27-.25-.48-.6-.48s-.64-.24-.64-.54.32-.54.71-.54.77-.36.89-.78c.32-1.16.88-2.13,1.59-2.86,1.1-1.14,2.5-1.79,4.27-1.79.85,0,1.57.16,2.13.36.42.15.64.64.52,1.04-.12.39-.53.52-.95.38-.48-.16-1.07-.27-1.68-.27-1.16,0-2.11.41-2.84,1.18-.49.48-.86,1.16-1.1,1.96-.13.42.17.78.61.78h4.41c.44,0,.8.24.8.54s-.36.54-.8.54h-4.6c-.44,0-.82.2-.83.45,0,.15-.01.3-.01.45v.19c0,.11.36.2.8.2h4.65c.44,0,.8.24.8.53s-.36.53-.8.53h-4.49c-.44,0-.76.36-.65.79.22.86.58,1.53,1.03,2.04.8.84,1.88,1.25,3.04,1.25.72,0,1.39-.17,1.9-.37.41-.16.81-.04.91.34.1.38-.11.88-.52,1.07Z"/>
    </g>
    <g>
      <path class="cls-1" d="m321.78,134.97c-5.82,0-10.55-4.73-10.55-10.55s4.73-10.55,10.55-10.55,10.55,4.73,10.55,10.55-4.73,10.55-10.55,10.55Zm0-20.06c-5.24,0-9.51,4.27-9.51,9.51s4.27,9.51,9.51,9.51,9.51-4.26,9.51-9.51-4.26-9.51-9.51-9.51Z"/>
      <path class="cls-1" d="m321.78,116.13c-4.58,0-8.29,3.71-8.29,8.29s3.71,8.29,8.29,8.29,8.29-3.71,8.29-8.29-3.71-8.29-8.29-8.29Zm2.48,12.66c-.42.19-.98.34-1.63.34-1.14,0-2.15-.43-2.85-1.25-.44-.49-.76-1.12-.92-1.9-.06-.28-.28-.52-.52-.52s-.43-.15-.43-.34.18-.34.4-.34.4-.05.4-.11v-.1c0-.11,0-.21,0-.32,0-.17-.16-.32-.39-.32s-.41-.16-.41-.35.21-.35.46-.35.5-.23.58-.51c.21-.75.58-1.39,1.04-1.86.71-.74,1.63-1.16,2.78-1.16.55,0,1.02.1,1.39.24.27.1.41.42.34.67-.08.25-.34.34-.62.25-.32-.11-.7-.18-1.1-.18-.76,0-1.37.26-1.85.77-.32.31-.56.75-.72,1.27-.08.28.11.51.4.51h2.87c.29,0,.52.16.52.35s-.23.35-.52.35h-2.99c-.29,0-.53.13-.54.29,0,.1,0,.2,0,.29v.13c0,.07.23.13.52.13h3.02c.29,0,.52.15.52.34s-.23.34-.52.34h-2.92c-.29,0-.49.23-.42.51.14.56.38,1,.67,1.33.52.55,1.22.81,1.98.81.47,0,.9-.11,1.24-.24.27-.1.53-.02.59.22.07.24-.07.58-.34.69Z"/>
    </g>
    <g>
      <path class="cls-1" d="m270.23,268.59c-5.82,0-10.55-4.73-10.55-10.55s4.73-10.55,10.55-10.55,10.55,4.73,10.55,10.55-4.73,10.55-10.55,10.55Zm0-20.06c-5.24,0-9.51,4.27-9.51,9.51s4.27,9.51,9.51,9.51,9.51-4.26,9.51-9.51-4.26-9.51-9.51-9.51Z"/>
      <path class="cls-1" d="m270.23,249.75c-4.58,0-8.29,3.71-8.29,8.29s3.71,8.29,8.29,8.29,8.29-3.71,8.29-8.29-3.71-8.29-8.29-8.29Zm2.48,12.67c-.42.19-.98.34-1.63.34-1.14,0-2.15-.43-2.85-1.25-.44-.49-.76-1.12-.92-1.9-.06-.28-.28-.52-.52-.52s-.43-.15-.43-.34.18-.34.4-.34.4-.05.4-.11v-.11c0-.11,0-.21,0-.31,0-.17-.17-.32-.39-.32s-.41-.16-.41-.35.21-.35.46-.35.5-.23.58-.51c.21-.75.58-1.39,1.04-1.86.71-.74,1.63-1.16,2.78-1.16.55,0,1.02.1,1.39.24.27.1.41.42.34.67-.08.25-.34.34-.62.25-.32-.11-.7-.18-1.1-.18-.76,0-1.37.26-1.85.77-.32.31-.56.75-.72,1.27-.08.28.11.51.4.51h2.87c.29,0,.52.16.52.35s-.23.35-.52.35h-3c-.29,0-.53.13-.54.3,0,.1,0,.2,0,.29v.13c0,.07.23.13.52.13h3.02c.29,0,.52.15.52.34s-.23.34-.52.34h-2.92c-.29,0-.49.23-.42.51.14.56.38,1,.67,1.32.52.55,1.22.81,1.98.81.47,0,.9-.11,1.24-.24.27-.11.53-.02.59.22.07.24-.07.58-.34.69Z"/>
    </g>
    <g>
      <path class="cls-1" d="m183.76,224.31c-10.37,0-18.8-8.43-18.8-18.8s8.43-18.8,18.8-18.8,18.8,8.43,18.8,18.8-8.43,18.8-18.8,18.8Zm0-35.73c-9.34,0-16.94,7.6-16.94,16.94s7.6,16.94,16.94,16.94,16.94-7.6,16.94-16.94-7.6-16.94-16.94-16.94Z"/>
      <path class="cls-1" d="m183.76,190.75c-8.16,0-14.77,6.61-14.77,14.76s6.61,14.77,14.77,14.77,14.76-6.61,14.76-14.77-6.61-14.76-14.76-14.76Zm4.25,23.02h-8.51c-.51,0-.93-.28-.93-.62s.38-.81.79-1.11c1.24-.92,2.06-2.32,2.06-3.88,0-.31,0-.59-.02-.88-.03-.48-.52-.87-1.03-.87h-.71c-.51,0-.93-.35-.93-.79s.41-.79.93-.79h.46c.51,0,.86-.41.79-.92-.07-.56-.13-1.17-.13-1.78,0-2.95,2.02-4.88,4.8-4.88.76,0,1.38.1,1.87.25.49.15.74.74.6,1.2-.14.46-.62.62-1.11.49-.37-.1-.82-.16-1.36-.16-1.95,0-2.75,1.35-2.75,3.12,0,.67.06,1.23.14,1.76.08.51.58.92,1.09.92h1.74c.51,0,.93.35.93.79s-.42.79-.93.79h-1.54c-.51,0-.89.41-.87.93.02.64,0,1.26-.16,1.87-.2.77-.56,1.45-1.07,2.04-.33.39-.66.67-.66.68s.42.02.93.02h5.59c.51,0,.93.41.93.91s-.42.91-.93.91Z"/>
    </g>
    <g>
      <path class="cls-1" d="m141.72,138.12c-5.88,0-10.67-4.78-10.67-10.67s4.79-10.67,10.67-10.67,10.67,4.79,10.67,10.67-4.79,10.67-10.67,10.67Zm0-20.28c-5.3,0-9.61,4.31-9.61,9.61s4.31,9.61,9.61,9.61,9.61-4.31,9.61-9.61-4.31-9.61-9.61-9.61Z"/>
      <path class="cls-1" d="m141.72,119.07c-4.63,0-8.38,3.75-8.38,8.38s3.75,8.38,8.38,8.38,8.38-3.75,8.38-8.38-3.75-8.38-8.38-8.38Zm2.41,13.07h-4.83c-.29,0-.53-.16-.53-.35s.21-.46.45-.63c.7-.52,1.17-1.32,1.17-2.2,0-.17,0-.34-.01-.5-.02-.27-.29-.49-.58-.49h-.4c-.29,0-.53-.2-.53-.45s.24-.45.53-.45h.26c.29,0,.49-.23.45-.52-.04-.31-.08-.66-.08-1.01,0-1.67,1.15-2.77,2.72-2.77.43,0,.78.06,1.06.14.28.09.42.42.34.68-.08.26-.35.35-.63.28-.21-.06-.47-.09-.77-.09-1.11,0-1.56.77-1.56,1.77,0,.38.03.7.08,1,.04.29.33.52.62.52h.99c.29,0,.53.2.53.45s-.24.45-.53.45h-.87c-.29,0-.51.23-.5.53.01.36,0,.72-.09,1.06-.11.44-.32.82-.61,1.16-.19.22-.37.38-.37.39s.24.01.53.01h3.17c.29,0,.53.23.53.52s-.24.52-.53.52Z"/>
    </g>
    <g>
      <path class="cls-1" d="m53.89,245.61c-5.88,0-10.67-4.79-10.67-10.67s4.79-10.67,10.67-10.67,10.67,4.79,10.67,10.67-4.79,10.67-10.67,10.67Zm0-20.28c-5.3,0-9.61,4.31-9.61,9.61s4.31,9.61,9.61,9.61,9.61-4.31,9.61-9.61-4.31-9.61-9.61-9.61Z"/>
      <path class="cls-1" d="m53.89,226.57c-4.63,0-8.38,3.75-8.38,8.38s3.75,8.38,8.38,8.38,8.38-3.75,8.38-8.38-3.75-8.38-8.38-8.38Zm2.41,13.07h-4.83c-.29,0-.53-.16-.53-.36s.21-.46.45-.63c.7-.52,1.17-1.32,1.17-2.2,0-.17,0-.34-.01-.5-.02-.27-.29-.5-.58-.5h-.4c-.29,0-.53-.2-.53-.45s.23-.45.53-.45h.26c.29,0,.49-.23.45-.52-.04-.32-.08-.66-.08-1.01,0-1.67,1.15-2.77,2.72-2.77.43,0,.78.06,1.06.14.28.09.42.42.34.68-.08.26-.35.35-.63.28-.21-.06-.47-.09-.77-.09-1.11,0-1.56.77-1.56,1.77,0,.38.03.7.08,1,.04.29.33.52.62.52h.99c.29,0,.53.2.53.45s-.24.45-.53.45h-.87c-.29,0-.51.24-.5.53.01.36,0,.72-.09,1.06-.11.44-.32.82-.61,1.16-.19.22-.37.38-.37.39,0,0,.24.01.53.01h3.17c.29,0,.53.23.53.52s-.24.52-.53.52Z"/>
    </g>
    <path class="cls-1" d="m134.52,23.69l11.53,7.2c-1.76,2.81-2.81,6.29-2.79,9.36,0,1.53.28,2.94.77,4.13.5,1.19,1.2,2.16,2.16,2.99l-8.9,10.27c-2.51-2.15-4.55-4.99-5.8-8.04-1.27-3.05-1.8-6.23-1.81-9.27,0-6.1,1.8-11.69,4.85-16.64Zm9.07,6.67l-7.66-4.36-.02.05c-.34.6-1.07.86-1.66.56l-.04-.03c-2.13,4.19-3.39,8.82-3.38,13.75.01,2.46.38,5,1.21,7.47.83,2.47,2.17,4.86,3.92,6.89l.03-.04c.51-.43,1.32-.3,1.86.24l.04.04,6.22-6.25-.02-.02c-.3-.3-.11-.91.39-1.33l.04-.03c-1.54-1.77-2.37-4.21-2.38-7.04-.02-2.8.77-5.85,2.14-8.53l-.04-.02c-.59-.3-.89-.9-.64-1.33l.02-.03Zm-11.67,9.96c0,1,.59,1.88,1.47,2.41.89.53,2.07.7,3.31.49,1.24-.2,2.31-.69,3.08-1.21.77-.53,1.23-1.11,1.23-1.74,0-.63-.48-1.23-1.26-1.76-.78-.53-1.86-.98-3.11-1.15-1.24-.16-2.42.03-3.3.56-.88.53-1.44,1.4-1.43,2.4Z"/>
    <path class="cls-1" d="m68.62,85.68l13.39-2.36c.62,3.7,1.81,7.89,2.09,13.05.13,2.57-.05,5.44-.87,8.3-.8,2.87-2.28,5.61-4.07,7.83l-10.62-8.49c.79-.99,1.29-1.96,1.61-3.06.31-1.1.44-2.4.36-3.94-.13-3.1-1.11-6.92-1.9-11.33Zm11.19-1.08l-8.67,1.63v.04c.12.55-.32,1.09-.97,1.21h-.05c.7,3.53,1.42,6.72,1.54,9.48.13,2.78-.31,4.86-1.49,6.74l.04.02c.56.34.86.89.63,1.22l-.02.02,7.17,5.12.02-.04c.39-.54,1.13-.74,1.7-.39l.04.03c1.26-2,2.18-4.29,2.68-6.59.5-2.3.6-4.57.5-6.66-.22-4.21-1.11-7.82-1.74-11.11h-.05c-.65.14-1.26-.17-1.35-.67v-.04Zm-7.05,12.31c.03.61.54,1.12,1.35,1.56.81.43,1.92.79,3.17.88,1.25.09,2.41-.14,3.25-.67.84-.52,1.35-1.33,1.31-2.19-.09-1.75-2.3-2.77-4.78-2.42-2.49.35-4.35,1.67-4.3,2.85Z"/>
    <path class="cls-1" d="m306.11,38.43v13.59c-3.69,0-7.09.36-10.25,1.29-3.16.93-6.26,2.48-9.42,4.46l-7.21-11.53c3.78-2.36,8.06-4.59,12.79-5.97,4.72-1.4,9.58-1.85,14.09-1.85Zm-.86,11.21l-.13-8.82h-.04c-.57.02-1.05-.51-1.08-1.17v-.05c-3.8.11-7.79.62-11.66,1.77-3.87,1.13-7.47,2.86-10.72,4.77l.03.04c.33.57.2,1.27-.28,1.56l-.04.02,4.58,7.54.03-.02c.43-.26,1.04,0,1.38.57l.02.04c2.72-1.6,5.42-2.86,8.2-3.68,2.78-.82,5.71-1.22,8.83-1.31v-.05c-.03-.66.35-1.21.85-1.22h.04Zm-12.59-7.2c-1.61.48-2.13,2.86-1.22,5.2.92,2.34,2.6,3.87,3.79,3.52,1.18-.35,1.77-2.55,1.27-5.01-.49-2.46-2.23-4.18-3.84-3.71Z"/>
    <path class="cls-1" d="m343.04,69.32l13.41,2.23c-.45,2.73-1.4,5.45-2.75,7.87-1.34,2.43-3.05,4.53-4.85,6.31-3.64,3.56-7.59,5.96-11.25,8.06l-6.75-11.8c3.34-1.9,6.31-3.81,8.44-5.93,2.15-2.13,3.32-4.25,3.75-6.74Zm10.84,2.95l-8.61-1.88v.03c-.09.39-.69.55-1.33.37l-.04-.02c-.61,2.22-1.88,4.22-3.79,6.11-1.91,1.88-4.38,3.58-7.12,5.2l.03.04c.34.57.27,1.23-.17,1.49h-.03s4.43,7.64,4.43,7.64l.03-.02c.47-.27,1.12-.04,1.46.53l.02.04c3.1-1.85,6.34-3.98,9.29-6.88,1.47-1.45,2.86-3.12,4.03-4.99,1.16-1.88,2.11-3.96,2.7-6.14h-.05c-.63-.19-1.01-.84-.87-1.48l.02-.04Zm-13,5.39c-.82.81-.31,3.01,1.27,4.97,1.57,1.96,3.9,2.71,5.12,1.5.6-.59.76-1.52.49-2.46-.26-.94-.96-1.91-1.94-2.69-.98-.79-2.03-1.29-2.91-1.53-.88-.23-1.61-.2-2.03.21Z"/>
    <path class="cls-1" d="m384.66,174.53l-13.58-.65c.18-3.7-.69-7.43-2.48-10.89-1.78-3.46-4.45-6.63-7.63-9.21l8.57-10.55c4.49,3.66,8.38,8.19,11.14,13.54,2.76,5.32,4.28,11.55,3.97,17.76Zm-11.17-1.47l8.82.05v-.05c0-.74.51-1.37,1.17-1.4h.05c-.18-5.06-1.6-10-3.85-14.37-2.26-4.37-5.31-8.21-8.84-11.44l-.03.04c-.45.48-1.24.49-1.77.02l-.04-.04-5.75,6.68.04.02c.43.37.41,1.08-.04,1.57l-.03.03c5.29,4.8,8.82,11.31,9.03,17.92h.05c.66-.04,1.22.38,1.21.92v.04Zm5.2-15.26c-.95-1.82-3.55-2.07-5.64-.67-2.09,1.4-3.12,3.53-2.45,4.83.34.67,1.08,1.06,2.04,1.22.96.15,2.14.06,3.31-.4,1.17-.45,2.1-1.21,2.61-2.12.51-.91.58-1.96.13-2.86Z"/>
    <path class="cls-1" d="m209.17,128.57l4.77,12.73c-2.76,1.02-5.53,2.93-8.33,5.35-2.81,2.42-5.6,5.32-8.86,8.32l-9.18-10.02c2.81-2.57,5.73-5.62,9.16-8.59,3.42-2.95,7.46-5.92,12.44-7.8Zm3.23,10.77l-3.41-8.13-.04.02c-.58.24-1.26-.03-1.54-.62l-.02-.05c-3.85,1.79-7.07,4.22-9.92,6.67-2.85,2.46-5.36,5.01-7.79,7.31l.04.03c.46.48.52,1.16.14,1.51l-.03.02,6.02,6.44.02-.03c.41-.38,1.1-.3,1.55.18l.03.04c2.61-2.48,4.99-4.88,7.4-6.96,2.41-2.08,4.83-3.83,7.3-4.98l-.02-.04c-.28-.6-.18-1.24.23-1.41h.03Zm-14.2-1.28c-1.19,1.03-.71,3.37,1,5.21,1.71,1.84,3.93,2.56,4.95,1.67,1.01-.88.6-3.14-.93-5.13-1.53-1.99-3.82-2.79-5.02-1.75Z"/>
    <path class="cls-1" d="m85.87,197.31l-7.54-11.31c2.5-1.69,5.69-2.84,8.88-2.99,3.19-.17,6.24.55,8.83,1.72,2.61,1.18,4.84,2.78,6.76,4.65,1.91,1.88,3.53,4.03,4.78,6.51l-12.16,6.08c-.99-2.03-3.02-4.01-4.94-4.84-.96-.43-1.83-.59-2.54-.54-.71.04-1.33.24-2.07.72Zm-5.19-9.95l4.34,7.67h.02c.28-.17.73.21,1,.82l.02.04c.73-.34,1.46-.48,2.26-.46.8.02,1.7.24,2.63.65,1.85.82,3.7,2.45,4.9,4.32l.04-.03c.55-.37,1.17-.4,1.36-.07v.03s7.67-4.36,7.67-4.36l-.03-.04c-.31-.55-.15-1.27.41-1.63l.04-.02c-2.38-3.64-5.61-6.6-9.76-8.5-2.08-.93-4.42-1.56-6.91-1.63-2.48-.08-5.07.44-7.32,1.49l.02.04c.27.61-.03,1.32-.63,1.66l-.05.02Zm10.72,7.72c.43.2,1.05-.05,1.79-.57.73-.52,1.57-1.32,2.27-2.37.69-1.05,1.07-2.16,1.02-3.15-.04-.98-.52-1.83-1.36-2.21-.83-.37-1.81-.18-2.59.45-.79.62-1.35,1.67-1.64,2.89-.29,1.22-.31,2.39-.22,3.27.09.89.3,1.5.73,1.69Z"/>
    <path class="cls-1" d="m15.7,182.97l13.36-2.5c.47,2.5,1.34,4.4,2.5,5.6,1.13,1.22,2.84,2.08,5.25,2.57l-2.67,13.33c-2.12-.43-4.31-1.09-6.47-2.16-2.15-1.05-4.25-2.55-5.98-4.38-1.74-1.83-3.09-3.96-4.04-6.09-.96-2.14-1.56-4.28-1.95-6.36Zm11.14-1.45l-8.61,1.88v.04c.13.5-.29,1.04-.93,1.21h-.05c.85,3.4,2.48,7.05,5.28,9.99,1.38,1.46,3,2.7,4.7,3.64,1.7.95,3.47,1.63,5.21,2.1v-.05c.19-.63.74-1.04,1.25-.92h.04s2.01-8.57,2.01-8.57h-.03c-.35-.08-.48-.67-.29-1.31l.02-.04c-2.02-.55-3.57-1.42-4.71-2.63-1.15-1.2-1.99-2.89-2.53-4.99h-.05c-.64.18-1.23.03-1.31-.32v-.03Zm-3.51,12.35c.55.58,1.44.7,2.34.38.9-.31,1.81-1.06,2.57-2.06.76-1,1.27-2.03,1.58-2.86.29-.82.39-1.43.11-1.72-.28-.28-.88-.24-1.73.02-.83.26-1.9.72-2.94,1.43-1.03.71-1.82,1.57-2.19,2.46-.36.87-.3,1.78.25,2.35Z"/>
    <path class="cls-1" d="m211.41,20.26l9.99-9.22c2.22,2.4,3.76,5.32,4.6,8.26.85,2.95,1.06,5.92.81,8.78-.25,2.87-.95,5.65-2.1,8.29-1.15,2.64-2.76,5.16-4.95,7.36l-9.61-9.61c1.65-1.62,2.91-4.46,3.12-7.2.12-1.37,0-2.71-.33-3.85-.33-1.15-.85-2.08-1.52-2.8Zm9.07-6.62l-6.91,5.48.02.02c.23.29-.05.84-.6,1.2l-.04.02c1.15,1.68,1.69,4.12,1.46,6.65-.21,2.52-1.17,5.1-2.62,6.96l.04.03c.53.4.75.98.49,1.29l-.02.02,6.61,5.83.03-.04c.46-.53,1.23-.65,1.76-.25l.03.03c2.93-3.84,4.51-8.28,4.93-12.9.19-2.31.08-4.69-.44-7.05-.52-2.36-1.47-4.73-2.9-6.86l-.04.03c-.55.36-1.33.16-1.78-.41l-.03-.05Zm-4.97,13.47c-.05.57.38,1.15,1.11,1.71.73.56,1.77,1.09,3,1.38,1.22.28,2.41.22,3.32-.19.92-.41,1.55-1.18,1.63-2.12.08-.93-.41-1.81-1.25-2.38-.83-.57-2-.83-3.25-.75-1.25.08-2.37.44-3.18.85-.82.43-1.33.92-1.38,1.49Z"/>
    <path class="cls-1" d="m98.58,131.25l-8.71,3.48c-.7-1.73-1.95-3.68-3.3-5.2-.67-.76-1.4-1.44-2-1.84-.29-.2-.54-.31-.58-.32,0,0,0,0,0,0l-.89-9.23c1.28-.26,2.62-.07,3.84.32,1.2.41,2.1.93,2.88,1.46,1.56,1.07,2.71,2.21,3.76,3.39,2.07,2.39,3.7,4.85,4.98,7.94Zm-7.37,2.43l5.57-2.46v-.02c-.17-.36.02-.8.43-1h.03c-1.15-2.36-2.54-4.41-4.24-6.36-.86-.97-1.8-1.9-2.95-2.78-.58-.44-1.21-.86-1.96-1.25-.73-.38-1.69-.75-2.69-.91v.03c-.09.45-.59.73-1.14.74h-.04s-.18,6.06-.18,6.06h0c.13,0,.16.37.08.82v.03c.07-.01.61.21,1.21.68.6.45,1.23,1.07,1.83,1.74,1.19,1.35,2.28,2.97,3.05,4.57l.03-.02c.41-.2.84-.15.96.11v.02Zm1.23-9.34c-.72-.81-2.34-.4-3.51.87-1.17,1.27-1.7,2.71-1.19,3.29.51.58,2.02.25,3.41-.79,1.39-1.04,2-2.56,1.29-3.37Z"/>
    <path class="cls-1" d="m50.3,99.8l1.54-9.25c1.95.32,3.86,1.04,5.49,2.02,1.64.97,3.03,2.15,4.21,3.37,2.36,2.44,4.02,5.03,5.54,7.31l-7.81,5.2c-1.54-2.33-2.95-4.42-4.46-5.97-1.52-1.56-2.98-2.42-4.53-2.67Zm2.05-7.47l-1.34,5.94h.02c.26.06.36.48.22.91v.03c1.43.41,2.81,1.34,4.14,2.71,1.33,1.37,2.56,3.1,3.83,5l.03-.02c.38-.25.85-.22,1.04.08v.02s5.08-3.37,5.08-3.37l-.02-.02c-.2-.3-.06-.75.32-1.01l.03-.02c-1.33-1.99-2.79-4.11-4.73-6.11-1.91-1.98-4.47-3.87-7.55-4.76v.03c-.14.43-.6.68-1.04.58h-.03Zm3.59,9.05c.57.58,2.1.23,3.44-.86,1.34-1.1,1.86-2.68,1.05-3.52-.81-.84-2.46-.38-3.55.97-1.09,1.35-1.5,2.83-.94,3.41Z"/>
    <path class="cls-1" d="m119.71,76.92l-9.29-1.33c.41-2.73,1.43-5,2.68-7.03,1.26-2.02,2.79-3.78,4.58-5.32,1.79-1.53,3.85-2.85,6.31-3.73,2.42-.87,5.43-1.23,8.37-.38l-2.58,9.02c-.68-.2-1.59-.17-2.68.21-1.08.38-2.25,1.09-3.3,1.99-1.05.9-2.01,2.01-2.73,3.17-.73,1.15-1.21,2.39-1.35,3.39Zm-7.46-2.16l5.94,1.34v-.03c.08-.35.53-.53.96-.39h.03c.65-2.09,2.22-4.31,4.1-5.92,1.86-1.63,4.18-2.64,5.84-2.51v-.03c.02-.46.29-.82.59-.77h.02s1.03-5.99,1.03-5.99h-.05c-.66-.11-1.17-.51-1.16-.96v-.03c-2.33-.13-4.5.41-6.37,1.22-1.88.82-3.52,1.91-4.98,3.16-1.46,1.25-2.74,2.67-3.83,4.24-1.09,1.58-2.02,3.32-2.63,5.3h.03c.43.15.64.72.5,1.32v.04Zm10.52-5.57c.8-.7.78-2.33-.11-3.82-.46-.73-1.13-1.24-1.86-1.42-.73-.18-1.52-.03-2.11.48-1.22,1.04-.99,2.94.32,4.07,1.32,1.13,2.96,1.38,3.77.7Z"/>
    <path class="cls-1" d="m245.88,53.93l-8.52,3.93c-.8-1.79-2.89-3.56-5.35-4.49-2.44-.97-5.27-1.11-7.13-.37l-3.37-8.76c2.42-.92,4.88-1.19,7.21-1.07,2.33.12,4.57.63,6.68,1.45,2.12.82,4.12,1.96,5.94,3.48,1.81,1.52,3.44,3.45,4.53,5.82Zm-7.29,2.73l5.32-2.96-.03-.04c-.28-.52-.25-1.11.13-1.37l.03-.02c-2.27-3.39-5.51-5.56-8.92-6.91-3.44-1.3-7.23-1.87-11.16-1.02v.03c.1.45-.28.9-.84,1.07h-.04s1.76,5.83,1.76,5.83h.02c.33-.11.69.2.78.64v.03c2.01-.45,4.47-.17,6.66.68,2.19.85,4.16,2.28,5.25,3.96l.03-.02c.38-.26.84-.23,1.01.07v.02Zm-3.74-10.59c-1.44-.55-2.96.54-3.33,2.24-.37,1.69.12,3.25,1.06,3.61.94.37,2.35-.46,3.22-1.95.88-1.5.49-3.34-.95-3.9Z"/>
    <path class="cls-1" d="m262.5,35.45l3.81-8.57c1.65.74,3.05,1.66,4.34,2.7,1.29,1.05,2.46,2.25,3.49,3.64,1.03,1.4,1.94,3.01,2.5,4.95.56,1.92.69,4.27.01,6.46l-8.99-2.7c.08-.29.1-.63-.05-1.2-.15-.55-.51-1.25-1.02-1.94-1-1.37-2.64-2.7-4.1-3.35Zm3.8-6.75l-2.73,5.44h.02c.23.12.24.55.01.95l-.02.03c1.38.77,2.73,1.96,3.66,3.22.96,1.26,1.38,2.59,1.27,3.39h.03c.45.04.82.22.78.39h0s5.97,1.21,5.97,1.21v-.04c.1-.48.5-.85.95-.81h.03c.17-1.76-.13-3.46-.66-4.91-.53-1.47-1.27-2.73-2.1-3.86-1.69-2.24-3.69-4-6.11-5.38v.03c-.24.4-.71.55-1.08.37l-.03-.02Zm1.55,9.18c.41.53,1.88.33,3.43-.47.76-.42,1.35-.97,1.65-1.57.3-.6.31-1.24-.03-1.69-.7-.94-2.35-.62-3.59.59-1.25,1.2-1.86,2.6-1.46,3.14Z"/>
    <path class="cls-1" d="m242.87,80.05l9.14,2.11c-.49,2.13-.38,4.41.29,6.64.67,2.22,1.9,4.38,3.49,6.16l-7.01,6.23c-2.46-2.78-4.35-6.05-5.46-9.67-1.11-3.61-1.35-7.64-.46-11.47Zm7.42,2.29l-5.98-1.12v.03c-.09.46-.51.78-.96.72h-.03c-.45,3.15-.14,6.36.76,9.31.9,2.96,2.35,5.68,4.21,8.08l.02-.02c.36-.28.88-.21,1.16.13l.02.03,4.67-3.9-.02-.02c-.22-.26-.09-.71.27-.99l.03-.02c-2.61-3.35-4-7.62-3.41-11.52h-.03c-.45-.06-.78-.37-.72-.7v-.02Zm-5.47,8.73c.37,1.24,2.08,1.63,3.66.94,1.59-.69,2.59-1.91,2.34-2.76-.26-.84-1.77-1.29-3.48-1-1.71.29-2.91,1.58-2.53,2.82Z"/>
    <path class="cls-1" d="m316.2,63.82l6.63-6.63c1.38,1.38,2.69,3.01,3.71,4.92,1.03,1.91,1.67,4.08,1.95,6.1.28,2.03.26,3.9.21,5.58-.05,1.69-.13,3.21-.13,4.65h-9.38c0-3.52.35-6.66.01-8.93-.16-1.14-.46-2.08-.94-3-.48-.91-1.18-1.81-2.06-2.69Zm6.04-4.87l-4.45,4.15.02.02c.24.26.14.71-.21,1.01l-.03.02c1.38,1.62,2.13,3.22,2.41,5.26.3,2.05.09,4.61.02,7.44h.03c.46.01.82.37.81.8v.03s6.08.08,6.08.08v-.03c0-.39.38-.71.84-.69h.03c.04-2.55.35-5.4-.09-8.72-.23-1.64-.69-3.37-1.43-4.97-.73-1.6-1.71-3.04-2.78-4.29l-.02.02c-.35.29-.88.23-1.21-.12l-.02-.03Zm-1.5,10.35c.13.88,1.55,1.66,3.28,1.61,1.73-.04,3.12-1.12,2.93-2.48-.09-.67-.56-1.23-1.22-1.51-.65-.29-1.48-.31-2.31-.07-.83.24-1.53.66-2.01,1.1-.48.44-.75.89-.68,1.35Z"/>
    <path class="cls-1" d="m386.99,125.49l6.97,6.28c-1.57,1.73-3.22,3.16-4.99,4.48-1.77,1.3-3.65,2.46-5.69,3.44-2.04.97-4.25,1.78-6.72,2.19-2.45.41-5.26.4-8.04-.58l3.16-8.84c.86.31,2.01.39,3.35.17,1.33-.22,2.78-.72,4.2-1.4,2.84-1.36,5.69-3.46,7.75-5.73Zm5.08,5.89l-4.37-4.24-.02.03c-.31.32-.83.29-1.14-.04l-.02-.03c-2.02,1.93-4.45,3.63-6.94,4.83-2.48,1.2-5.13,1.85-7.12,1.53v.03c-.07.45-.4.78-.74.69h-.02s-1.5,5.89-1.5,5.89h.05c.63.17,1.09.61,1.03,1.06v.03c2.21.34,4.33.15,6.27-.28,1.94-.44,3.73-1.11,5.41-1.91,3.35-1.62,6.3-3.69,8.97-6.23l-.02-.02c-.31-.33-.25-.91.14-1.31l.03-.03Zm-12.16,1.24c-1.06.51-1.48,2.14-.93,3.79.55,1.64,2.23,2.55,3.63,1.88,1.4-.67,1.73-2.52.83-3.99-.9-1.48-2.47-2.17-3.53-1.67Z"/>
    <path class="cls-1" d="m353.37,100.29l6.01,7.21c-.54.44-1.19,1.24-1.71,2.15-.54.91-.99,1.93-1.3,2.96-.31,1.02-.48,2.06-.48,2.94,0,.89.18,1.56.36,1.86l-8.15,4.66c-1.26-2.24-1.59-4.53-1.6-6.54.01-2.03.36-3.89.89-5.64.53-1.76,1.26-3.42,2.2-5.01.96-1.59,2.09-3.14,3.78-4.58Zm4.62,6.24l-4.21-4.4-.02.03c-.35.33-.87.37-1.22.06l-.02-.02c-2.17,2.42-3.48,5.05-4.37,7.91-.43,1.43-.73,2.93-.83,4.52-.09,1.59.03,3.3.6,5.08l.03-.02c.44-.13.91.16,1.13.65v.04s5.57-2.47,5.57-2.47h0c-.09-.2.21-.5.64-.63h.03c-.39-1.14-.29-3.09.28-4.91.55-1.82,1.53-3.67,2.66-4.9l-.03-.02c-.34-.3-.46-.73-.26-.91h.02Zm-9.12,3.79c-.37,1.19.85,2.45,2.56,2.73,1.71.28,3.2-.12,3.45-.91.24-.79-.78-1.97-2.37-2.67-1.59-.7-3.27-.34-3.64.85Z"/>
    <path class="cls-1" d="m325.47,171.39l8.15,4.65c-1.57,2.74-3.25,5.57-5.28,8.31-1.02,1.37-2.14,2.73-3.44,4.05-1.31,1.31-2.81,2.6-4.78,3.67l-4.41-8.28c.76-.41,1.67-1.13,2.54-2.01.88-.88,1.74-1.92,2.56-3.03,1.66-2.24,3.16-4.74,4.67-7.37Zm6.36,4.45l-5.27-3.03v.03c-.21.34-.69.43-1.08.2l-.03-.02c-1.28,2.19-2.58,4.3-4.01,6.22-1.41,1.9-2.98,3.66-4.53,4.74l.02.03c.26.37.27.83.01.98h-.02s3.19,5.19,3.19,5.19l.03-.02c.43-.26.95-.19,1.22.18l.02.03c2.72-1.95,4.61-4.21,6.32-6.48,1.69-2.28,3.14-4.63,4.49-6.95h-.03c-.39-.24-.55-.72-.34-1.07l.02-.02Zm-9.78,3.85c-.6.81-.03,2.33,1.29,3.44,1.33,1.12,3.03,1.26,3.75.3.71-.96.07-2.53-1.36-3.5-1.44-.97-3.07-1.06-3.67-.25Z"/>
    <path class="cls-1" d="m219.45,170.96l-8.67,3.57c-.81-1.95-2.67-4.15-4.74-5.68-2.06-1.57-4.54-2.53-6.19-2.41l-.49-9.37c2.53-.12,4.82.42,6.84,1.2,2.02.79,3.82,1.85,5.45,3.06,1.63,1.22,3.1,2.6,4.42,4.17,1.31,1.58,2.5,3.33,3.39,5.46Zm-7.39,2.42l5.48-2.64-.02-.03c-.23-.48-.11-1.02.29-1.24h.03c-1.74-3.09-4.02-5.49-6.68-7.5-2.67-1.96-5.77-3.59-9.6-4.04v.03c-.05.46-.54.76-1.1.75h-.04s-.16,6.08-.16,6.08h.02c.31,0,.52.41.47.86v.03c1.8.18,3.92,1.16,5.75,2.53,1.84,1.37,3.49,3.17,4.51,5.01l.03-.02c.39-.22.86-.16,1.01.15v.02Zm-1.34-10.81c-1.12-.83-2.81-.18-3.66,1.33-.85,1.5-.87,3.12-.09,3.71.79.59,2.34.11,3.53-1.15,1.19-1.26,1.33-3.05.22-3.88Z"/>
    <path class="cls-1" d="m177.8,123.47l8.04,4.83c-2.06,3.43-2.51,9.12-1.41,13.58l-9.1,2.28c-.85-3.49-1.03-6.89-.72-10.35.35-3.43,1.19-6.96,3.19-10.34Zm6.37,4.44l-5.35-2.89v.03c-.23.4-.72.57-1.13.38l-.03-.02c-1.34,2.78-1.97,5.65-2.26,8.48-.26,2.84-.16,5.66.36,8.5h.03c.45-.09.87.18.97.61v.03s5.95-1.29,5.95-1.29v-.02c-.08-.32.24-.66.69-.74h.03c-.74-4.08-.38-8.75,1.26-12.17h-.03c-.41-.21-.64-.6-.49-.87v-.02Zm-8,6.05c-.11,1.19,1.28,2.16,3.01,2.19,1.73.02,3.15-.69,3.24-1.59.09-.89-1.17-1.86-2.87-2.17-1.7-.32-3.26.39-3.38,1.57Z"/>
    <path class="cls-1" d="m129.84,160l-3.37-8.76c1.23-.46,2.28-.65,3.27-.78,1-.12,1.93-.16,2.85-.16,1.83.02,3.57.21,5.3.54,1.73.34,3.45.81,5.2,1.54.88.37,1.77.81,2.69,1.39.91.59,1.88,1.31,2.81,2.43l-7.26,5.94s-.24-.25-.58-.46c-.34-.22-.79-.45-1.28-.65-.99-.42-2.17-.75-3.36-.98-1.19-.23-2.43-.36-3.59-.37-.58,0-1.13.02-1.61.08-.48.06-.9.16-1.07.23Zm-1.86-7.52l1.63,5.86h.02c.24-.07.54.25.62.7v.03c.8-.16,1.82-.21,2.85-.16,1.04.04,2.11.17,3.16.37,1.05.2,2.07.48,3.01.83.93.34,1.78.78,2.3,1.19l.02-.03c.27-.37.66-.54.81-.4h0s4.21-4.38,4.21-4.38l-.03-.03c-.41-.39-.53-.94-.25-1.3l.02-.02c-1.49-1.13-2.93-1.79-4.35-2.33-1.42-.53-2.83-.9-4.26-1.18-1.42-.27-2.85-.45-4.33-.51-1.48-.05-2.98-.02-4.67.3v.03c.09.45-.23.88-.73,1.02h-.04Zm8.43,6.06c.89.17,1.98-.98,2.46-2.65.48-1.66-.08-3.29-1.27-3.52-1.19-.23-2.31,1.06-2.49,2.79-.18,1.72.41,3.2,1.3,3.38Z"/>
    <path class="cls-1" d="m124.44,124.56l2.28,9.1c-.76.19-1.95.66-3,1.16-1.08.51-2.16,1.09-3.15,1.72-.99.62-1.94,1.3-2.62,1.94-.34.31-.61.62-.71.77-.06.09-.03.04-.03.05h0l-9.15-1.66c.04-.69.26-1.36.51-2,.26-.63.64-1.28.97-1.75.69-.98,1.37-1.68,2.05-2.31,1.35-1.24,2.67-2.16,4.02-3,1.35-.84,2.7-1.57,4.12-2.25,1.45-.67,2.82-1.28,4.73-1.78Zm1.43,7.63l-1.78-5.82h-.03c-.41.14-.85-.1-1-.53v-.03c-2.6.94-4.81,2.07-7.05,3.45-1.11.7-2.2,1.45-3.29,2.38-.55.47-1.09.97-1.64,1.58-.54.61-1.1,1.31-1.6,2.32h.03c.41.22.52.81.35,1.37l-.02.04,5.78,1.87h0c.04-.14.42-.07.82.14l.03.02c.03-.12.61-.83,1.29-1.38.69-.59,1.51-1.17,2.38-1.71,1.73-1.07,3.69-2.06,5.49-2.7v-.03c-.17-.43-.06-.86.22-.95h.02Zm-9.46-2.29c-.93.58-.84,2.25.19,3.65,1.03,1.4,2.41,2.13,3.14,1.67.74-.46.7-2.04-.13-3.56-.83-1.52-2.27-2.34-3.19-1.76Z"/>
    <path class="cls-1" d="m29.23,239.18H11.81c0-3.6.61-7.04,1.66-10.29,1.05-3.25,2.55-6.32,4.48-9.17,1.93-2.84,4.31-5.46,7.2-7.66,2.87-2.2,6.28-3.96,10.01-4.92l4.35,16.87c-2.55.63-5.2,2.61-7.16,5.5-1.96,2.85-3.13,6.51-3.12,9.66Zm-14.32-1.45l11.28.58v-.04c.02-.51.75-.85,1.59-.76h.06c.31-3.03,1.5-6.21,3.29-8.82,1.78-2.62,4.15-4.65,6.62-5.64l-.03-.06c-.33-.78-.23-1.56.21-1.71h.03s-3.52-10.74-3.52-10.74l-.06.03c-.82.27-1.73-.09-2.06-.88l-.02-.06c-5.64,2.3-10.04,6.35-13.15,10.92-3.1,4.6-5.1,9.82-5.71,15.46h.06c.84.1,1.45.83,1.41,1.66v.06Zm15.05-9.83c.4-.59.26-1.48-.23-2.54-.5-1.05-1.35-2.28-2.55-3.36-1.2-1.07-2.55-1.75-3.81-1.88-1.26-.13-2.41.29-3.04,1.22-.63.93-.6,2.15-.01,3.27.58,1.12,1.7,2.14,3.14,2.87,1.43.73,2.89,1.08,4.06,1.15,1.17.07,2.06-.14,2.46-.73Z"/>
    <path class="cls-1" d="m7.46,132l14.49-9.66c1.46,2.19,3.63,3.91,6.61,5.18,2.96,1.27,6.57,2.01,10.36,2.28l-1.24,17.38c-5.21-.39-10.6-1.36-15.97-3.64-2.68-1.14-5.34-2.64-7.79-4.57-2.46-1.93-4.69-4.3-6.46-6.96Zm12.38-7.36l-9.09,6.72.04.04c.44.59.29,1.49-.35,2.03l-.05.03c3.26,4,7.57,6.87,11.9,8.71,4.36,1.85,8.78,2.81,13.1,3.3v-.06c.1-.84.7-1.46,1.34-1.4h.05s1.02-11.24,1.02-11.24h-.04c-.52-.04-.87-.78-.77-1.62v-.06c-3.24-.36-6.34-1.08-9.01-2.22-2.67-1.14-4.85-2.68-6.42-4.61l-.05.04c-.65.55-1.4.72-1.66.37,0,0,0-.02-.01-.03Zm3.01,16.24c.88.37,1.93.08,2.84-.73.91-.79,1.68-2.08,2.18-3.61.5-1.53.64-3.01.57-4.16-.09-1.14-.4-1.97-1-2.22-.59-.26-1.38.09-2.26.82-.88.74-1.85,1.86-2.64,3.26-.79,1.4-1.2,2.85-1.14,4.06.05,1.22.57,2.19,1.46,2.57Z"/>
    <path class="cls-1" d="m154.51,262.05l-17.15,3.06c-.2-1.14-.64-2.29-1.34-3.51-.71-1.21-1.69-2.46-2.9-3.69-2.41-2.47-5.63-4.78-9.17-6.93l9.06-14.88c4.24,2.6,8.56,5.57,12.56,9.62,1.99,2.03,3.89,4.36,5.49,7.09,1.6,2.72,2.86,5.88,3.45,9.24Zm-14.28,1.84l10.99-2.62-.02-.05c-.18-.75.29-1.54,1.1-1.8h.06c-1.58-5.19-4.62-9.37-7.84-12.66-3.26-3.31-6.78-5.9-10.31-8.17l-.03.05c-.46.71-1.26,1.01-1.79.68l-.04-.03-5.98,9.58.04.02c.47.29.48,1.11.02,1.83l-.04.05c2.95,1.89,5.64,3.93,7.79,6.12,2.15,2.19,3.67,4.5,4.34,6.73l.06-.02c.81-.25,1.56-.14,1.66.27,0,0,0,.02,0,.03Zm3.28-16.15c-1.35-1.38-4.21-.38-6.3,2.06-2.1,2.44-2.94,5.15-2.03,6.09.47.48,1.35.48,2.45.14,1.1-.34,2.42-1.02,3.67-2.03,1.25-1.01,2.17-2.2,2.57-3.35.41-1.14.3-2.24-.36-2.91Z"/>
    <path class="cls-1" d="m265.22,168.2l12.92,11.69c-2.56,2.83-4.7,5.83-6.11,8.84-1.42,3.02-2.1,6-1.99,8.92l-17.41.62c-.24-6,1.24-11.93,3.63-16.95,2.39-5.06,5.55-9.35,8.96-13.12Zm10.04,10.31l-8.5-7.44-.03.04c-.42.48-1.27.43-1.92-.11l-.04-.04c-2.73,3.25-5.23,6.87-7.18,10.99-1.93,4.1-3.27,8.76-3.47,13.6h.06c.84.04,1.5.64,1.5,1.34v.05s11.29.04,11.29.04v-.03c0-.46.7-.79,1.55-.74h.06c.21-5.37,3.03-10.93,7.27-15.93l-.05-.04c-.65-.54-.91-1.31-.56-1.7l.03-.02Zm-16.39,4.04c-.39.84-.13,1.88.64,2.82.76.94,2.02,1.75,3.53,2.3,1.51.55,2.98.76,4.13.74,1.15-.03,1.97-.31,2.25-.9.54-1.15-1.18-3.39-3.95-5.02-2.77-1.63-5.79-1.65-6.6.06Z"/>
    <path class="cls-1" d="m365.99,95.86l16.96-3.96c1.57,6.69.76,13.59-1.57,19.54-2.34,5.98-6.11,11.22-11.06,15.34l-11.09-13.43c2.58-2.12,4.71-5.08,5.92-8.22,1.23-3.15,1.52-6.41.84-9.27Zm14.26-1.91l-11.12,2.02v.03c.1.47-.54.94-1.38,1.04h-.06c.35,2.78-.06,5.77-1.18,8.62-1.11,2.85-2.89,5.54-5.09,7.68l.04.04c.6.6.78,1.38.4,1.72l-.03.02,7.54,8.42.04-.04c.56-.51,1.48-.45,2.08.16l.04.05c3.7-3.62,6.59-7.96,8.48-12.81,1.88-4.83,2.73-10.25,2.04-15.68h-.06c-.84.11-1.6-.44-1.74-1.22v-.06Zm-12.42,12.22c-.25.64.1,1.46.83,2.36.74.89,1.87,1.86,3.3,2.61,1.42.75,2.89,1.1,4.12.97,1.23-.12,2.22-.74,2.61-1.72.38-.98.06-2.11-.76-3.04-.82-.94-2.15-1.66-3.7-2.06-1.56-.4-3.05-.44-4.2-.29-1.15.17-1.96.53-2.2,1.17Z"/>
    <path class="cls-1" d="m300.41,117.96l-16.73-4.86c1.21-4.15,1.9-8.08,1.8-11.71-.09-3.64-.97-7.09-2.62-10.62l15.79-7.37c2.49,5.27,4.12,11.42,4.25,17.52.17,6.11-.98,11.86-2.48,17.04Zm-13.51-4.98l10.9,2.99v-.05c.19-.65.99-1.02,1.81-.82l.06.02c1.13-4.41,1.9-9.19,1.76-14.16-.12-4.96-1.22-9.98-3.05-14.48l-.05.03c-.79.31-1.64.02-1.92-.63v-.05s-10.37,4.51-10.37,4.51l.02.03c.22.5-.26,1.17-1.05,1.48l-.06.02c1.25,3.11,1.93,6.24,2.01,9.48.09,3.25-.41,6.65-1.32,10.19h.06c.82.22,1.37.84,1.22,1.4l-.02.04Zm13.12-11.98c-.03-1.01-.74-1.9-1.86-2.43-1.1-.54-2.61-.73-4.2-.53-1.6.2-3,.7-4.01,1.29-1,.59-1.61,1.27-1.59,1.99.01.72.67,1.37,1.7,1.91,1.04.54,2.46.96,4.07,1.06,1.6.1,3.09-.18,4.16-.77,1.08-.59,1.74-1.5,1.72-2.51Z"/>
    <path class="cls-1" d="m182.19,0l16.06,6.74c-3.94,9.31-6.1,18.92-4.35,27.2l-17.06,3.51c-1.39-6.72-1.17-13.5-.05-19.77,1.12-6.29,3.09-12.16,5.4-17.68Zm12.79,6.64l-10.47-4.24-.02.05c-.28.7-1.14,1.03-1.93.72l-.06-.03c-1.82,4.68-3.34,9.6-4.27,14.79-.91,5.18-1.22,10.66-.47,16.17h.06c.84-.12,1.6.45,1.74,1.26v.06s11.14-1.91,11.14-1.91v-.04c-.12-.61.5-1.19,1.34-1.3h.06c-1.03-7.52.75-15.78,3.88-23.78l-.06-.02c-.79-.3-1.23-1.06-.98-1.69l.02-.04Zm-15.35,11.54c-.38,2.18,2.03,4.23,5.23,4.54,3.2.31,5.94-.81,6.24-2.5.3-1.7-1.89-3.72-5.01-4.5-3.12-.78-6.08.3-6.47,2.46Z"/>
    <path class="cls-1" d="m163.24,39.17l9.37-.49c.21,3.93-.81,7.71-2.44,10.94-1.65,3.25-3.89,6.05-6.64,8.4l-6.06-7.16c3.56-3.01,6.04-7.68,5.78-11.69Zm7.75.4l-6.08.05v.02c0,.31-.38.54-.83.52h-.03c-.13,3.72-2.23,7.67-5.22,10.54l.02.02c.32.33.38.78.13,1h-.02s4.07,4.53,4.07,4.53l.02-.02c.33-.29.83-.27,1.15.06l.02.03c2.11-2.04,3.89-4.4,5.23-7.05,1.34-2.65,2.24-5.64,2.37-8.79h-.03c-.45-.02-.81-.41-.81-.87v-.03Zm-7.81,6.52c-.39.78.41,2.14,1.87,3.08,1.45.94,3.18.86,3.74-.25.56-1.11-.4-2.56-2.02-3.16-1.63-.6-3.19-.44-3.58.33Z"/>
    <path class="cls-1" d="m156.53,15.99l8.56,3.85c-1.53,3.4-3.09,6.6-4.37,9.77-1.28,3.16-2.28,6.28-2.69,9.31l-9.3-1.27c.57-4.17,1.86-8,3.29-11.56,1.44-3.56,3.07-6.88,4.51-10.1Zm6.71,3.93l-5.54-2.52v.03c-.2.42-.7.61-1.11.42l-.03-.02c-2.5,5.5-5.41,11.29-6.74,18.03h.03c.45.09.73.57.65,1.08v.04s5.99.98,5.99.98v-.03c.07-.42.5-.69.95-.6h.03c1.02-5.32,3.59-10.65,6.17-16.24h-.03c-.41-.2-.59-.7-.39-1.14l.02-.03Zm-9.78,6.75c-.51,1.25.44,2.77,2.07,3.35,1.63.58,3.29.14,3.75-1,.46-1.14-.42-2.63-2-3.33-1.59-.7-3.31-.27-3.81.97Z"/>
    <path class="cls-1" d="m249.41,23.42l2.53,9.03c-3.34.93-6.62,2.43-10.08,4.17-3.46,1.72-7.15,3.68-11.3,5.12l-3.08-8.86c3.3-1.14,6.61-2.86,10.19-4.66,3.57-1.79,7.48-3.62,11.74-4.81Zm1.3,7.68l-1.77-5.82-.04.02c-.52.16-1.06-.05-1.2-.48v-.03c-6.95,2.28-12.71,6.05-18.38,8.27l.02.03c.17.42-.06.91-.5,1.08h-.03s2.12,5.71,2.12,5.71l.04-.02c.51-.19,1.05,0,1.22.41v.03c3.35-1.32,6.41-2.92,9.34-4.38,2.93-1.47,5.76-2.79,8.62-3.73v-.03c-.16-.43.09-.9.55-1.04h.03Zm-12.35-1.49c-1.27.63-1.64,2.39-.86,3.94.77,1.55,2.43,2.29,3.66,1.67,1.23-.62,1.61-2.36.87-3.92-.74-1.57-2.41-2.33-3.68-1.69Z"/>
    <path class="cls-1" d="m282.37,13.69l9.01,2.63c-.97,3.31-1.47,6.95-2.15,10.93-.67,3.96-1.65,8.32-3.62,12.41l-8.46-4.05c1.42-2.94,2.21-6.25,2.84-9.95.63-3.69,1.16-7.79,2.38-11.96Zm7.2,2.95l-5.88-1.58v.04c-.15.52-.61.85-1.05.74h-.03c-.86,3.44-1.31,6.81-1.85,9.95-.54,3.14-1.19,6.06-2.27,8.71h.03c.42.18.63.66.45,1.08l-.02.03,5.56,2.46v-.04c.24-.51.75-.78,1.17-.62l.03.02c1.4-3.44,2.16-6.99,2.73-10.31.57-3.33,1-6.48,1.74-9.41h-.03c-.44-.11-.71-.57-.59-1.03v-.03Zm-8.05,9.28c-.23,1.32.94,2.64,2.64,2.99,1.7.36,3.31-.52,3.55-1.93.24-1.4-.97-2.72-2.68-3-1.71-.28-3.28.61-3.5,1.94Z"/>
    <path class="cls-1" d="m110.16,101.35l-5.38,7.69c-.92-.64-1.85-1-2.93-1.15-1.08-.15-2.34-.05-3.7.27-2.75.64-5.73,2.11-8.86,3.77l-4.37-8.3c3.25-1.69,6.78-3.56,11.09-4.6,2.15-.5,4.55-.77,7.07-.44,2.51.31,5.04,1.31,7.08,2.76Zm-4.94,6l3.14-5.21-.04-.02c-.5-.3-.77-.85-.57-1.26l.02-.03c-1.84-.93-3.91-1.46-5.9-1.57-2-.12-3.91.12-5.67.53-3.53.84-6.55,2.29-9.37,3.73l.02.03c.21.41.03.91-.39,1.13h-.03s2.82,5.41,2.82,5.41l.03-.02c.41-.21.91-.05,1.11.35v.03c2.62-1.34,5.17-2.5,7.6-3.07,2.44-.57,4.55-.48,6.3.42v-.03c.21-.41.63-.62.93-.44l.02.02Zm-8.85-6.81c-1.47.35-2.1,2.07-1.52,3.7.58,1.64,1.92,2.65,2.95,2.41,1.02-.24,1.7-1.71,1.58-3.44-.08-.86-.44-1.62-.99-2.11-.55-.5-1.3-.72-2.02-.55Z"/>
    <path class="cls-1" d="m20.28,95.79l8.9,2.97c-.44,1.33-.73,3.22-.85,4.99-.12,1.8-.08,3.62.16,5.31.22,1.68.68,3.26,1.27,4.26.29.5.58.83.81,1,.24.17.4.25.72.31l-1.48,9.26c-1.74-.26-3.56-1.04-4.97-2.15-1.43-1.1-2.46-2.45-3.21-3.76-1.48-2.64-2.07-5.2-2.42-7.65-.34-2.46-.38-4.83-.23-7.21.18-2.4.46-4.68,1.31-7.34Zm7.12,3.17l-5.88-1.57v.05c-.17.61-.63,1.01-1.08.92h-.03c-.81,3.99-.95,7.82-.43,11.87.29,2.01.75,4.08,1.72,6.19.49,1.05,1.12,2.12,1.97,3.12.85,1,1.96,1.94,3.25,2.59v-.03c.23-.4.98-.42,1.74-.18l.05.02,1.82-5.81h-.02c-.28-.09-.3-.52-.08-.93l.02-.03c-.54-.26-1.16-.93-1.68-2.04-.51-1.1-.87-2.5-1.07-3.98-.4-2.95-.27-6.27.33-9.18h-.03c-.45-.1-.73-.55-.61-.99v-.03Zm-6.65,11.16c.23,1.69,1.97,2.7,3.63,2.21,1.66-.49,2.75-1.81,2.58-3.07-.18-1.26-1.61-2.3-3.34-2.25-1.73.05-3.1,1.42-2.87,3.11Z"/>
    <path class="cls-1" d="m8.56,217.67l-8.56-3.85c1.06-2.35,2.64-4.33,4.36-5.89,1.73-1.57,3.6-2.77,5.5-3.76,3.82-1.95,7.74-3.1,11.82-3.74l1.39,9.28c-3.1.47-6.25,1.42-8.91,2.79-2.67,1.36-4.77,3.22-5.61,5.16Zm-6.59-4.1l5.36,2.88v-.02c.18-.31.65-.35,1.03-.1l.03.02c1.11-1.78,3.11-3.34,5.43-4.54,2.33-1.2,4.98-2.07,7.66-2.61v-.03c-.1-.44.17-.88.6-.95h.03s-1.05-6-1.05-6h-.04c-.5.1-.98-.18-1.07-.63v-.03c-3.33.67-6.58,1.72-9.71,3.33-3.1,1.62-6.22,3.84-8.42,7.28h.03c.38.26.43.86.15,1.38l-.02.04Zm11.49-2.44c.99-.51,1.33-2.17.68-3.77-.64-1.61-2.25-2.47-3.56-1.8-1.31.68-1.55,2.52-.58,3.96.97,1.43,2.48,2.12,3.46,1.62Z"/>
    <path class="cls-1" d="m71.21,267.91l-12.16-6.08c2.23-4.41,4.91-8.36,8.04-12.05,3.17-3.66,6.73-7.12,11.47-9.88l6.74,11.8c-2.7,1.55-5.47,4.08-7.88,6.91-2.42,2.84-4.59,6.06-6.22,9.3Zm-9.54-5.96l7.8,4.11v-.04c.25-.45.92-.55,1.49-.22l.04.03c1.56-2.8,3.46-5.51,5.55-7.97,2.1-2.45,4.43-4.68,6.85-6.32l-.03-.04c-.37-.54-.36-1.21.04-1.45h.03s-4.66-7.5-4.66-7.5l-.04.03c-.55.34-1.27.19-1.65-.35l-.02-.04c-3.57,2.44-6.49,5.3-9.1,8.33-2.6,3.06-4.87,6.3-6.84,9.83l.04.02c.58.32.8,1.01.52,1.55l-.03.04Zm14.05-4.81c.89-1.04.19-3.25-1.61-5-1.8-1.75-4.21-2.18-5.31-.9-1.09,1.28-.28,3.58,1.72,5.1,2,1.51,4.3,1.85,5.19.81Z"/>
    <path class="cls-1" d="m126.39,214.11l9.36-.62c.12,1.91-.09,3.63-.45,5.28-.36,1.65-.9,3.21-1.6,4.73-.71,1.52-1.58,2.99-2.74,4.4-1.17,1.39-2.64,2.77-4.71,3.75l-3.93-8.52c.34-.15.9-.58,1.43-1.22.53-.64,1.04-1.46,1.45-2.35.83-1.76,1.3-3.91,1.2-5.43Zm7.74.24l-6.08.08v.02c0,.26-.38.46-.83.44h-.03c-.06,1.58-.54,3.4-1.28,4.98-.72,1.58-1.8,3.01-2.77,3.67l.02.03c.26.36.33.78.15.88h-.01s3.02,5.29,3.02,5.29l.03-.02c.42-.24.94-.16,1.21.21l.02.03c2.71-1.94,4.24-4.35,5.41-6.8,1.13-2.48,1.86-5.07,2-7.96h-.03c-.46-.02-.81-.38-.81-.81v-.03Zm-7.53,5.84c-.31.68.58,1.92,2.05,2.83,1.47.91,3.16.84,3.64-.19.48-1.03-.56-2.35-2.2-2.9-1.64-.56-3.17-.42-3.49.26Z"/>
    <path class="cls-1" d="m116.02,234.18l6.82,6.44c-1.26,1.32-2.65,2.62-4.31,3.76-1.65,1.14-3.59,2.14-5.74,2.71-2.14.58-4.43.68-6.51.41-2.09-.27-3.99-.85-5.73-1.54l3.48-8.71c1.2.48,2.37.81,3.42.95,1.06.14,2,.07,2.92-.17,1.82-.45,3.78-1.88,5.63-3.85Zm5.07,5.88l-4.32-4.28-.02.02c-.26.26-.73.2-1.04-.14l-.02-.03c-1.65,1.58-3.39,2.71-5.1,3.16-1.71.47-3.59.3-5.68-.39v.03c-.15.44-.53.7-.87.58h-.02s-2.09,5.7-2.09,5.7h.03c.43.17.68.64.54,1.07v.03c1.49.5,3.11.87,4.84.99,1.72.13,3.54-.02,5.26-.48,3.48-.93,6.28-2.95,8.48-5.05l-.03-.02c-.31-.33-.3-.86.02-1.18l.03-.02Zm-10.31-.53c-.39.11-.69.51-.91,1.12-.22.59-.36,1.4-.29,2.26.07.87.38,1.62.89,2.13.51.5,1.23.74,1.92.55.69-.18,1.19-.73,1.38-1.42.2-.69.09-1.51-.27-2.3-.36-.79-.88-1.41-1.37-1.83-.49-.41-.96-.62-1.35-.52Z"/>
    <path class="cls-1" d="m162.71,169.72l-6.38-6.88c1.79-1.66,3.92-2.74,6.03-3.35,2.12-.62,4.26-.81,6.35-.68,2.1.14,4.16.6,6.16,1.44,1.98.84,3.92,2.07,5.54,3.81l-6.88,6.38c-1.09-1.21-3.25-2.14-5.43-2.26-2.19-.16-4.32.5-5.4,1.54Zm-4.53-6.29l3.78,4.77v-.02c.24-.18.64,0,.88.39l.02.03c1.33-.91,3.33-1.35,5.3-1.22,1.97.13,3.96.81,5.28,1.9l.02-.03c.28-.36.7-.5.92-.3v.02s4.16-4.45,4.16-4.45l-.03-.02c-.39-.36-.5-.91-.22-1.27l.02-.02c-2.9-2.29-6.27-3.34-9.65-3.59-3.37-.2-6.95.42-10.13,2.51l.02.03c.25.38.08.93-.34,1.27l-.03.02Zm10.03,3.2c.85.06,1.84-1.17,2.23-2.86.39-1.69-.42-3.31-1.83-3.41-.69-.04-1.32.31-1.73.89-.41.58-.59,1.39-.52,2.25.18,1.72,1,3.06,1.85,3.12Z"/>
    <path class="cls-1" d="m267.08,115.37l9.84,9.37c-3.64,3.81-7.79,7.38-12.84,10.14-2.53,1.37-5.3,2.51-8.29,3.23-2.98.72-6.2.99-9.36.67l1.35-13.53c3.14.33,6.48-.51,9.82-2.32,3.33-1.8,6.54-4.48,9.47-7.56Zm7.31,8.55l-6.28-6.19-.03.03c-.4.41-1.11.35-1.57-.13l-.03-.04c-2.6,2.53-5.4,4.75-8.33,6.34-2.93,1.59-5.95,2.51-8.87,2.53v.05c.02.66-.37,1.2-.86,1.18h-.04s-.41,8.8-.41,8.8h.05c.74.03,1.36.56,1.37,1.22v.05c5.15-.04,10.02-1.65,14.13-3.89,4.14-2.26,7.68-5.11,10.84-8.18l-.04-.03c-.46-.47-.45-1.23.02-1.7l.04-.03Zm-15.71.98c-.64.35-.99,1.08-1.1,2.04-.11.95.03,2.12.51,3.29.48,1.16,1.25,2.08,2.15,2.57.9.5,1.93.57,2.77.1,1.73-.94,1.87-3.5.46-5.58-1.41-2.08-3.54-3.09-4.79-2.42Z"/>
    <path class="cls-1" d="m367.37,240.5l-13.59-.38c.16-5.52-.1-10.85-1.38-15.42-1.27-4.6-3.54-8.12-6.99-10.46l7.7-11.2c3.11,2.13,5.87,4.94,7.94,8.08,2.09,3.15,3.5,6.56,4.44,9.92,1.86,6.76,2.03,13.29,1.88,19.46Zm-11.17-1.58l8.82.14v-.06c0-.79.54-1.43,1.21-1.43h.05c0-5.23-.35-10.68-1.88-16.23-.77-2.76-1.86-5.54-3.4-8.16-1.52-2.62-3.51-5.07-5.83-7.11l-.03.04c-.44.49-1.34.4-2.06-.15l-.05-.04-5.4,6.97.04.02c.49.38.51,1.12.07,1.61l-.03.03c2.79,2.43,4.69,5.81,5.81,9.83,1.12,4.01,1.47,8.52,1.47,13.16h.05c.66,0,1.2.58,1.18,1.31v.05Zm7.12-17.28c-.32-1.13-1.15-2.01-2.18-2.43-1.03-.43-2.26-.4-3.42.09-1.16.48-2.05,1.29-2.61,2.14-.56.86-.79,1.77-.54,2.64.48,1.71,2.73,2.86,5.21,2.45,2.47-.4,4.19-2.59,3.54-4.9Z"/>
    <path class="cls-1" d="m287.95,175.49l7.54-11.31c1.59,1.07,3.31,2.11,5.24,3.45,1.91,1.33,4.13,3.07,6,5.43.93,1.16,1.73,2.44,2.39,3.73.33.67.6,1.24.89,1.99l.33.86.03.09.02.05c.03.07-.25-.63-.13-.33h0s0,.03,0,.03l.02.05.15.37c.09.24.18.48.25.71.29.91.45,1.68.55,2.14l.1.45s0,0,0,.01h0l-8.73,9.39-.43-.09c-.07-.02-.15-.02-.21-.05l-.15-.12c-.2-.15-.39-.32-.58-.48-.37-.34-.71-.7-1.03-1.1-.63-.78-1.15-1.68-1.53-2.63-.19-.47-.35-.98-.47-1.45-.12-.43-.19-.78-.25-1.05-.11-.54-.18-.77-.2-.83v-.02s0,0,0,0l.19-.08.35-.14.04-.02h.02s.01-.01.01-.01c.68.06-.91-.08-.75-.07l-.02-.05-.03-.09c-.09-.24-.19-.52-.22-.58-.08-.2-.24-.56-.37-.81-.27-.53-.57-1-.91-1.43-.68-.86-1.67-1.72-3.12-2.72-1.43-.99-3.2-2.09-5.01-3.3Zm6.96-8.83l-4.83,7.37.04.02c.46.3.53.98.17,1.54l-.03.04c1.48.96,2.88,1.84,4.03,2.69,1.16.85,2.03,1.64,2.69,2.48.66.83,1.18,1.79,1.61,2.96l.24.63s.03.09.05.17c.05.17.11.46.22.94.05.23.11.52.2.85.09.35.21.75.35,1.12.28.74.64,1.45,1.09,2.09l.04-.03c.58-.33,1.45-.02,2.08.53l.04.04,6.7-5.48h-.02c-.18-.11.18-.5.75-.82l.04-.02c-.05-.05-.08-.12-.11-.19l-.04-.12-.09-.41c-.08-.37-.19-.92-.38-1.58-.09-.33-.2-.68-.34-1.06l-.11-.28-.06-.14-.03-.07-.02-.04h0c.22.54.06.14.11.26h0s-.11-.31-.11-.31c-.75-2.07-1.87-4.21-3.36-6.08-1.48-1.88-3.24-3.38-4.86-4.56-1.63-1.19-3.16-2.14-4.58-3.07l-.02.04c-.36.55-1.01.77-1.44.49l-.03-.02Zm2.93,13.45c.31.39.98.47,1.88.37.89-.11,2.03-.41,3.13-1,1.11-.59,1.96-1.41,2.37-2.34.41-.92.34-1.94-.25-2.68-.59-.75-1.56-1.03-2.54-.84-.98.18-1.98.82-2.82,1.75-.85.93-1.4,1.96-1.71,2.81-.3.86-.37,1.54-.06,1.93Z"/>
    <path class="cls-1" d="m151.04,79.43l-6.97,6.28c-1.52-1.74-2.23-3.5-2.68-5.24-.43-1.74-.57-3.5-.35-5.35.24-1.84.8-3.83,2.33-5.77.77-.95,1.72-1.75,2.8-2.32,1.05-.58,2.32-.94,3.43-1.07l1.1,9.32c-.11.02-.03,0-.05,0,0-.03-.24.4-.29.97-.07.57-.03,1.3.13,1.92.14.62.46,1.16.56,1.26Zm-6.28,4.52l4.9-3.61h0c-.1-.14.15-.46.54-.69l.03-.02c-.5-.79-.82-2.33-.66-3.48.07-.58.24-1.05.4-1.29.11-.17.24-.27.41-.33v-.03c-.18-.42-.22-.81-.1-.83h0s-1.34-5.93-1.34-5.93h-.04c-.5.12-1.02-.07-1.19-.5v-.03c-1.79.62-3.33,1.9-4.32,3.48-.95,1.51-1.38,3.06-1.56,4.53-.18,1.47-.11,2.89.16,4.29.28,1.4.73,2.78,1.56,4.16l.03-.02c.39-.23.9-.1,1.17.27l.02.03Zm4.04-7.88c.03-.28-.26-.57-.76-.91-.5-.34-1.19-.73-2.02-1-.82-.28-1.63-.34-2.28-.12-.64.21-1.11.69-1.17,1.27-.07.59.26,1.13.83,1.48.57.35,1.36.51,2.23.47.87-.04,1.64-.24,2.21-.45.57-.22.93-.46.96-.74Z"/>
    <path class="cls-1" d="m345.56,51.39l2.63,9.01c-1.02.3-1.99.87-2.98,1.79-.99.91-1.94,2.13-2.86,3.53-.92,1.4-1.81,2.96-2.78,4.64-.49.84-1,1.71-1.59,2.63-.6.91-1.26,1.87-2.19,2.9l-6.89-6.36c.72-.77,1.66-2.3,2.57-3.87.93-1.6,1.9-3.34,3.07-5.1,1.17-1.76,2.52-3.57,4.31-5.24,1.78-1.66,4.1-3.16,6.73-3.92Zm1.59,7.62l-2.16-5.69-.04.02c-.58.22-1.2.11-1.4-.3v-.03c-1.96.93-3.61,2.25-4.96,3.64-1.35,1.4-2.44,2.88-3.41,4.34-.96,1.46-1.8,2.92-2.6,4.3-.8,1.38-1.56,2.71-2.31,3.77l.03.02c.37.26.48.76.24,1.06l-.02.02,4.75,3.8.02-.04c.37-.46.93-.62,1.3-.36l.02.02c1.09-1.55,1.91-3.01,2.72-4.39.8-1.38,1.56-2.7,2.36-3.9,1.58-2.42,3.34-4.36,5.22-5.24l-.02-.03c-.2-.41-.1-.87.23-1h.03Zm-11.33,2.39c-.81,1.22-.16,2.92,1.33,3.8,1.49.88,3.23.69,3.91-.34.67-1.02.15-2.62-1.2-3.71-1.35-1.09-3.22-.98-4.03.25Z"/>
    <path class="cls-1" d="m406.06,113.16l-3.7,8.62c-2.51-1.08-5.76-1.34-8.95-.91-3.19.43-6.41,1.53-9,3.15l-5.01-7.93c3.99-2.48,8.29-3.9,12.77-4.52,4.46-.57,9.23-.37,13.89,1.59Zm-3.71,6.85l2.09-5.71h-.04c-.55-.22-.9-.7-.77-1.14v-.03c-3.82-1.16-7.67-1.24-11.36-.77-3.69.51-7.25,1.59-10.61,3.35l.02.03c.21.41-.02.94-.51,1.23l-.04.02,3.05,5.27.03-.02c.38-.22.87-.06,1.08.35v.03c4.88-2.54,11.16-3.5,16.08-2.02v-.03c.14-.44.57-.7.96-.55h.03Zm-9.98-6.88c-1.54.21-2.44,1.86-2.04,3.55.4,1.68,1.68,2.83,2.87,2.67,1.18-.16,2.11-1.6,2.07-3.33-.04-1.74-1.35-3.1-2.9-2.89Z"/>
    <path class="cls-1" d="m380.29,191.11l3.88,8.54c-4.39,1.97-8.98,3.59-14.01,4.4-2.52.39-5.16.57-7.92.28-2.75-.28-5.67-1.08-8.31-2.69l4.88-8.01c2.38,1.49,6.07,1.77,9.9,1.15,3.84-.61,7.8-1.96,11.58-3.67Zm2.23,7.47l-2.43-5.58-.04.02c-.51.22-1.07.05-1.24-.37v-.03c-3.29,1.35-6.67,2.42-9.99,2.95-3.31.52-6.59.45-9.11-.59v.03c-.18.43-.66.63-1.06.43l-.03-.02-2.75,5.43.05.02c.63.32,1.03.88.86,1.3l-.02.03c2.25.92,4.57,1.33,6.8,1.45,2.23.12,4.39-.05,6.47-.38,4.16-.67,8.04-1.92,11.76-3.45l-.02-.03c-.17-.42.14-.95.7-1.2h.04Zm-13.57-2.27c-1.4.22-2.45,1.69-2.38,3.42.07,1.73,1.61,3.06,3.35,2.78,1.74-.28,2.76-1.98,2.34-3.66-.42-1.68-1.91-2.76-3.32-2.54Z"/>
    <path class="cls-1" d="m307.49,160.64l3.39-8.75c.99.39,2,.84,3.05,1.49,1.04.65,2.16,1.5,3.12,2.72.97,1.2,1.69,2.77,1.98,4.2.31,1.44.3,2.7.25,3.75-.13,2.1-.37,3.58-.32,4.71.04,1.12.24,1.76.67,2.49l-7.98,4.94c-.67-1.08-1.21-2.3-1.55-3.54-.34-1.24-.49-2.49-.52-3.62-.05-2.27.27-4.15.33-5.43.03-.63,0-1.09-.05-1.3-.05-.23-.07-.23-.16-.36-.14-.24-1.02-.86-2.22-1.3Zm3.62-6.87l-2.45,5.57h.03c.33.15.4.61.19,1.01l-.02.03c.92.46,1.44.95,1.59,1.25.09.16.16.33.21.66.05.32.07.78.04,1.35-.05,1.14-.28,2.63-.33,4.37-.05,1.73.15,3.8.93,5.73l.03-.02c.43-.16.94.15,1.21.67l.02.04,5.42-2.76v-.02c-.15-.26.12-.62.54-.78h.03c-.29-.74-.41-1.57-.38-2.69.02-1.12.22-2.46.32-4.17.04-.86.05-1.84-.12-2.93-.16-1.09-.54-2.3-1.17-3.37-.62-1.08-1.45-1.97-2.28-2.66-.84-.69-1.69-1.2-2.51-1.62v.03c-.22.4-.78.53-1.26.32l-.03-.02Zm.36,9.9c-.05.99,1.22,2.18,2.96,2.32,1.72.15,3.23-.61,3.31-2.02.04-.7-.33-1.42-.93-1.87-.61-.46-1.43-.61-2.29-.46-.85.15-1.59.48-2.14.81-.54.34-.89.71-.91,1.21Z"/>
    <path class="cls-1" d="m398.4,141.98l1.93,9.18c-3.96.83-8.17,1.63-12.67,1.72-2.26.03-4.62-.1-7.1-.7-2.45-.59-5.14-1.72-7.36-3.81l6.43-6.83c.68.65,1.75,1.19,3.14,1.52,1.38.34,3.02.46,4.73.43,3.45-.06,7.09-.71,10.9-1.52Zm.71,7.75l-1.23-5.96h-.04c-.5.11-.97-.17-1.06-.62v-.03c-3.17.63-6.29,1.11-9.27,1.17-2.95.06-5.8-.38-7.56-1.51v.03c-.25.39-.7.55-.98.33l-.02-.02-3.72,4.81.04.03c.53.41.8,1.01.56,1.4l-.02.02c1.97,1.23,4.06,1.89,6.04,2.26,1.99.37,3.92.46,5.79.44,3.73-.07,7.26-.64,10.66-1.32v-.03c-.1-.45.25-.89.76-1h.04Zm-11.58-4.69c-1.25.02-2.35,1.35-2.5,3.07-.16,1.73,1.04,3.23,2.61,3.2,1.56-.03,2.66-1.55,2.5-3.27-.16-1.73-1.34-3.03-2.6-3.01Z"/>
    <path class="cls-1" d="m111.19,54.28v-9.38c3.12.01,6.43.08,10.02.88,1.79.41,3.66,1.04,5.48,2.08,1.82,1.03,3.56,2.55,4.83,4.37l-7.69,5.38c-.46-.65-1.03-1.16-1.81-1.61-.78-.45-1.78-.82-2.92-1.08-2.29-.53-5.03-.64-7.91-.64Zm.7-7.73l-.04,6.08h.03c.38,0,.68.37.67.83v.03c2.4.04,4.72.18,6.73.65,2.03.46,3.65,1.25,4.67,2.35l.02-.02c.33-.32.75-.42.92-.2v.02s4.74-3.82,4.74-3.82l-.03-.03c-.32-.39-.34-.94,0-1.26l.03-.02c-1.21-1.3-2.67-2.32-4.15-3.05-1.48-.74-2.99-1.23-4.45-1.56-2.93-.67-5.71-.8-8.37-.85v.03c0,.46-.34.82-.74.82h-.03Zm7.56,6.85c.86.19,1.96-.9,2.56-2.53.6-1.62.07-3.31-1.15-3.58-1.22-.28-2.37.99-2.6,2.7-.23,1.72.33,3.21,1.19,3.41Z"/>
    <path class="cls-1" d="m195.62,231.24l.85-9.34c2.89.31,4.91,1.45,6.63,2.55,1.72,1.14,3.14,2.41,4.45,3.72,1.3,1.31,2.48,2.68,3.58,4.12,1.1,1.44,2.12,2.91,3.07,4.61l-8.2,4.56c-1.29-2.28-3.17-4.72-5.11-6.67-.98-.98-2-1.86-2.98-2.51-.96-.66-1.94-1.02-2.3-1.03Zm1.76-7.54l-1.23,5.96h.02c.24.05.34.48.2.91v.03c.7.22,1.6.71,2.48,1.36.89.64,1.77,1.43,2.62,2.28,1.69,1.71,3.28,3.7,4.57,5.73l.03-.02c.38-.25.86-.18,1.05.14v.03s5.24-3.12,5.24-3.12l-.02-.03c-.24-.4-.13-.91.26-1.16l.03-.02c-1.65-2.57-3.48-4.88-5.63-7.06-1.08-1.08-2.24-2.13-3.57-3.09-1.33-.96-2.82-1.87-4.72-2.48v.03c-.15.43-.7.64-1.28.52h-.04Zm4.62,9.98c.72.72,2.34.44,3.65-.69,1.31-1.13,1.7-2.83.8-3.73-.9-.91-2.62-.53-3.74.79-1.12,1.32-1.42,2.91-.71,3.64Z"/>
    <path class="cls-1" d="m258.31,225.51l-7.21,6.01c-.54-.67-1.76-1.42-3.29-1.86-1.53-.46-3.31-.66-5.08-.63-1.78.03-3.57.3-5.18.79-1.6.48-3.03,1.26-3.76,2.01l-6.63-6.63c2.41-2.34,5.06-3.52,7.63-4.34,2.59-.79,5.18-1.16,7.79-1.21,2.61-.04,5.25.23,7.93,1.02,1.34.4,2.69.94,4.03,1.71,1.33.77,2.66,1.79,3.79,3.14Zm-6.37,4.5l4.17-4.43-.04-.04c-.55-.52-.83-1.16-.56-1.54l.02-.02c-2.09-1.53-4.31-2.36-6.48-2.88-2.18-.51-4.34-.7-6.48-.67-2.14.04-4.27.31-6.39.85-2.12.55-4.24,1.35-6.28,2.69l.02.02c.25.39-.03,1-.6,1.46l-.04.03,3.84,4.72.02-.02c.32-.26.82-.14,1.06.25l.02.03c2.14-1.42,5.41-2.19,8.5-2.24,1.56-.03,3.12.12,4.55.46,1.42.33,2.73.88,3.63,1.55l.02-.03c.26-.37.75-.48,1.02-.22l.02.02Zm-9.36-8.81c-1.79.03-3.02,1.64-2.76,3.35.26,1.71,1.54,2.95,2.87,2.93,1.33-.03,2.55-1.3,2.76-3.02.21-1.72-1.08-3.29-2.87-3.25Z"/>
    <path class="cls-1" d="m42.9,96.5l4.89,8.01c-2.22,1.35-3.65,3.49-4.34,6.39-.68,2.87-.58,6.26.08,9.54l-9.2,1.86c-.85-4.31-1.1-8.86-.02-13.57.56-2.34,1.49-4.71,2.95-6.87,1.45-2.15,3.42-4.02,5.62-5.36Zm3.46,6.98l-3.49-4.99-.03.03c-.5.35-1.12.38-1.41.03l-.02-.03c-1.65,1.32-3.04,2.98-4.09,4.77-1.06,1.79-1.76,3.71-2.22,5.62-.9,3.84-.85,7.62-.33,11.23h.03c.45-.07.88.31.98.85v.04s6-1.05,6-1.05v-.03c-.09-.45.23-.87.68-.94h.03c-.42-2.86-.41-5.74.19-8.3.61-2.56,1.82-4.68,3.63-6.13l-.02-.02c-.29-.35-.28-.84.05-1.07h.02Zm-10.52,5.6c-.38,1.59.9,3.02,2.62,3.18,1.73.17,3.22-.64,3.48-1.73.14-.56-.06-1.14-.46-1.7-.41-.55-1.04-1.09-1.85-1.41-.81-.32-1.65-.33-2.35-.03-.71.3-1.26.91-1.44,1.69Z"/>
    <path class="cls-1" d="m264.92,90.98l-7.81-5.2c1.4-2.1,2.28-4.56,2.54-7.1.27-2.53-.09-5.13-1.03-7.4l8.66-3.61c3.17,7.65,2.17,16.53-2.37,23.32Zm-6.1-4.82l5.18,3.19.02-.03c.25-.42.77-.58,1.17-.36l.03.02c3.26-5.8,4.03-12.86,1.98-19.25h-.03c-.44.15-.91-.12-1.08-.58v-.04s-5.71,2.11-5.71,2.11v.02c.14.34-.13.73-.56.87h-.03c1.37,4.23.86,9.15-1.36,13.05h.03c.4.24.58.67.39.99l-.02.02Zm8.62-6.67c.15-1.37-1.28-2.47-3.01-2.44-1.74.03-3.12.84-3.23,1.79-.09.96,1.1,2.03,2.79,2.42,1.69.39,3.31-.39,3.45-1.77Z"/>
  </g>
</svg>